<svg width="2600" height="1094" viewBox="0 0 2600 1094" fill="none" xmlns="http://www.w3.org/2000/svg">
<g id="Frame 3">
<g id="Group 79">
<g id="second-4">
<animateTransform type="translate" fill="remove" restart="always" additive="replace" accumulate="none" begin=".6" keySplines="0.43 0.01 0.63 1; 0.43 0.01 0.63 1" calcMode="spline" values="0,20;0,-20;0,20" repeatCount="indefinite" dur="4s" attributeName="transform" attributeType="XML"/>
<g id="Group">
<g id="Group_2">
<path id="Vector" d="M2382.26 729.342L2338.5 738.49L2249.95 740.461L2293.71 731.312L2382.26 729.342Z" fill="#4E6481"/>
</g>
</g>
<g id="Group_3">
<g id="Group_4">
<path id="Vector_2" d="M2138.71 602.638L2095.14 611.715L2084.39 325.275L2127.96 316.202L2138.71 602.638Z" fill="#7A8AA0"/>
</g>
</g>
<g id="Group_5">
<g id="Group_6">
<path id="Vector_3" d="M2150.22 914.35L2106.59 923.426L2099.84 743.842L2143.47 734.77L2150.22 914.35Z" fill="#7A8AA0"/>
</g>
</g>
<g id="Group_7">
<g id="Group_8">
<path id="Vector_4" d="M1802.96 631.219L1759.25 640.295L2050.67 152.97L2094.38 143.894L1802.96 631.219Z" fill="#909EB0"/>
</g>
</g>
<g id="Group_9">
<g id="Group_10">
<path id="Vector_5" d="M2143.6 734.773L2099.84 743.967L1762.95 751.543L1806.71 742.349L2143.6 734.773Z" fill="#4E6481"/>
</g>
</g>
<g id="Group_11">
<g id="Group_12">
<path id="Vector_6" d="M2288.67 599.394L2377.12 597.452L2382.11 729.705L2293.66 731.647L2300.43 911.303L2150.5 914.595L2143.72 734.94L1807.21 742.33L1803.01 631.009L2094.45 143.667L2271.33 139.784L2288.67 599.394ZM2138.73 602.687L2127.92 316.11L1958.61 606.645L2138.73 602.687Z" fill="#E6E9ED"/>
</g>
</g>
<g id="Group_13">
<g id="Group_14">
<path id="Vector_7" d="M1806.7 742.471L1763.03 751.544L1758.84 640.263L1802.51 631.186L1806.7 742.471Z" fill="#7A8AA0"/>
</g>
</g>
</g>
<g id="first-4">
<animateTransform type="translate" fill="remove" restart="always" additive="replace" accumulate="none" keySplines="0.43 0.01 0.63 1; 0.43 0.01 0.63 1" calcMode="spline" values="0,20;0,-20;0,20" repeatCount="indefinite" dur="4s" attributeName="transform" attributeType="XML"/>
<g id="Group_15">
<g id="Group_16">
<path id="Vector_8" d="M372.063 586.771L436.004 569.028L608.5 582.62L544.558 600.367L372.063 586.771Z" fill="#7A8AA0"/>
</g>
</g>
<g id="Group_17">
<g id="Group_18">
<path id="Vector_9" d="M552.473 315.752L616.347 298.085L435.93 569.219L372.056 586.883L552.473 315.752Z" fill="#909EB0"/>
</g>
</g>
<g id="Group_19">
<g id="Group_20">
<path id="Vector_10" d="M684.734 742.96L748.508 725.303L743.436 903.68L679.662 921.338L684.734 742.96Z" fill="#BCC4CF"/>
</g>
</g>
<g id="Group_21">
<g id="Group_22">
<path id="Vector_11" d="M773.033 618.4L836.845 600.739L833.108 732.062L769.297 749.719L773.033 618.4Z" fill="#7A8AA0"/>
</g>
</g>
<g id="Group_23">
<g id="Group_24">
<path id="Vector_12" d="M688.195 611.774L752.134 594.048L836.839 600.713L772.9 618.443L688.195 611.774Z" fill="#909EB0"/>
</g>
</g>
<g id="Group_25">
<g id="Group_26">
<path id="Vector_13" d="M531.351 142.188L595.293 124.445L764.684 137.793L700.743 155.539L531.351 142.188Z" fill="#909EB0"/>
</g>
</g>
<g id="Group_27">
<g id="Group_28">
<path id="Vector_14" d="M687.856 611.559L772.458 618.192L768.717 749.546L684.115 742.917L679.031 921.36L535.619 910.118L540.704 731.679L218.839 706.451L221.986 595.888L531.685 141.801L700.864 155.061L687.856 611.559ZM544.445 600.321L552.555 315.712L372.166 586.818L544.445 600.321Z" fill="#E6E9ED"/>
</g>
</g>
<g id="Group_29">
<g id="Group_30">
<path id="Vector_15" d="M701.101 155.491L764.694 137.841L751.785 594.094L688.192 611.741L701.101 155.491Z" fill="#BCC4CF"/>
</g>
</g>
</g>
<g id="moon">
<animateTransform type="translate" fill="remove" restart="always" additive="replace" accumulate="none" begin=".3" keySplines="0.43 0.01 0.63 1; 0.43 0.01 0.63 1" calcMode="spline" values="0,20;0,-20;0,20" repeatCount="indefinite" dur="4s" attributeName="transform" attributeType="XML"/>
<g id="Group_31" opacity="0.130495">
<g id="Group_32">
<path id="Vector_16" d="M1764.03 546.998C1764.03 799.359 1556.31 1003.94 1300.05 1003.94C1043.81 1003.94 836.07 799.359 836.07 546.998C836.07 294.624 1043.81 90.0426 1300.05 90.0426C1556.31 90.0426 1764.03 294.624 1764.03 546.998Z" fill="white"/>
</g>
</g>
<g id="Group_33">
<g id="Group_34">
<path id="Vector_17" d="M1224.14 801.966L1252.79 805.423C1274.99 808.108 1290.94 828.209 1288.21 850.08L1285.53 871.602C1282.8 893.474 1262.4 909.176 1240.19 906.491L1211.56 903.034C1189.34 900.349 1173.4 880.256 1176.13 858.377L1178.81 836.855C1181.53 814.983 1201.94 799.282 1224.14 801.966Z" fill="#BCC4CF"/>
</g>
<g id="Group_35">
<path id="Vector_18" d="M1546.69 629.9L1561.98 590.571C1568.62 573.507 1588.22 564.889 1605.55 571.422L1639.1 584.076C1656.42 590.606 1665.18 609.913 1658.55 626.976L1643.26 666.306C1636.62 683.369 1617.02 691.984 1599.69 685.451L1566.14 672.8C1548.81 666.271 1540.06 646.964 1546.69 629.9Z" fill="#BCC4CF"/>
</g>
<g id="Group_36">
<path id="Vector_19" d="M1585.24 323.819L1600.19 343.567C1614.19 362.066 1610.28 388.496 1591.49 402.285L1576.92 412.988C1558.13 426.785 1531.29 422.929 1517.3 404.423L1502.34 384.668C1488.34 366.162 1492.25 339.743 1511.04 325.946L1525.62 315.251C1544.4 301.454 1571.24 305.313 1585.24 323.819Z" fill="#D2D8DF"/>
</g>
<g id="Group_37">
<path id="Vector_20" d="M1253.66 187.323L1294.93 188.72C1313.87 189.369 1328.84 205.169 1328.19 223.824L1326.99 257.739C1326.34 276.39 1310.3 291.135 1291.36 290.49L1250.09 289.086C1231.15 288.447 1216.18 272.65 1216.84 253.985L1218.03 220.081C1218.68 201.423 1234.72 186.684 1253.66 187.323Z" fill="#D2D8DF"/>
</g>
<g id="Group_38">
<path id="Vector_21" d="M1084.77 388.527L1069.34 407.764C1051.7 429.734 1019.04 433.502 996.715 416.142C974.417 398.782 970.588 366.592 988.218 344.622L1003.65 325.396C1021.28 303.426 1053.95 299.658 1076.26 317.015C1098.57 334.374 1102.4 366.557 1084.77 388.527Z" fill="#D2D8DF"/>
</g>
<g id="Group_39">
<path id="Vector_22" d="M1645.14 552.268C1645.14 743.153 1488.01 897.916 1294.18 897.916C1100.34 897.916 943.211 743.153 943.211 552.268C943.211 361.368 1100.34 206.609 1294.18 206.609C1488.01 206.609 1645.14 361.368 1645.14 552.268Z" fill="#F6F7F9"/>
</g>
<g id="Group_40" opacity="0.15">
<path id="Vector_23" opacity="0.15" d="M1294.18 754.583C1125.31 754.583 984.324 637.097 950.812 480.599C945.858 503.72 943.211 527.68 943.211 552.267C943.211 743.153 1100.34 897.915 1294.18 897.915C1488.01 897.915 1645.14 743.153 1645.14 552.267C1645.14 527.68 1642.5 503.72 1637.55 480.599C1604.04 637.097 1463.06 754.583 1294.18 754.583Z" fill="#2C1248"/>
</g>
<g id="Group_41">
<path id="Vector_24" d="M1209.66 353.268C1215.59 367.323 1203.31 385.737 1182.18 394.405C1161.05 403.061 1139.12 398.687 1133.17 384.629C1127.23 370.568 1139.53 352.143 1160.65 343.483C1181.77 334.826 1203.71 339.204 1209.66 353.268Z" fill="#DADFE4"/>
</g>
<g id="Group_42">
<path id="Vector_25" d="M1119.26 397.166C1110.3 375.986 1128.84 348.22 1160.68 335.16C1184.21 325.512 1208.4 326.63 1223.04 336.427C1209.62 322.566 1182 319.589 1155.2 330.581C1123.36 343.627 1104.82 371.386 1113.78 392.577C1116.12 398.094 1120.11 402.599 1125.27 406.049C1122.75 403.449 1120.68 400.514 1119.26 397.166Z" fill="#DADFE4"/>
</g>
<g id="Group_43" opacity="0.15">
<path id="Vector_26" opacity="0.15" d="M1209.66 353.268C1208.21 349.835 1205.8 346.995 1202.7 344.777C1206.75 358.538 1194.67 375.644 1174.54 383.895C1158.57 390.453 1142.13 389.532 1132.49 382.618C1132.69 383.292 1132.9 383.965 1133.17 384.629C1139.12 398.686 1161.05 403.061 1182.18 394.404C1203.29 385.736 1215.59 367.322 1209.66 353.268Z" fill="#2C1248"/>
</g>
<g id="Group_44">
<path id="Vector_27" d="M1330.52 273.652C1331.47 282.045 1319.89 290.183 1304.67 291.841C1289.44 293.503 1276.34 288.045 1275.4 279.653C1274.46 271.261 1286.03 263.122 1301.25 261.464C1316.48 259.803 1329.58 265.26 1330.52 273.652Z" fill="#DADFE4"/>
</g>
<g id="Group_45">
<path id="Vector_28" d="M1403.03 397.6C1396.29 393.766 1394.97 383.419 1399.49 373.538C1398.85 374.409 1398.2 375.281 1397.64 376.251C1391.37 386.947 1392.3 399.036 1399.72 403.252C1407.15 407.467 1418.24 402.229 1424.51 391.529C1425.08 390.559 1425.51 389.575 1425.97 388.591C1419.53 397.389 1409.79 401.438 1403.03 397.6Z" fill="#DADFE4"/>
</g>
<g id="Group_46" opacity="0.15">
<path id="Vector_29" opacity="0.15" d="M1264.98 283.858C1263.46 270.432 1282 257.397 1306.37 254.741C1316.68 253.622 1326.37 254.547 1334.24 257.002C1325.59 252.818 1313.43 250.909 1300.23 252.342C1275.86 255.002 1257.33 268.029 1258.85 281.459C1259.71 289.199 1267.08 295.365 1277.81 298.699C1270.48 295.171 1265.67 290.014 1264.98 283.858Z" fill="#2C1248"/>
</g>
<g id="Group_47" opacity="0.15">
<path id="Vector_30" opacity="0.15" d="M1330.52 273.652C1329.72 266.4 1319.79 261.348 1307.28 261.186C1314.18 263.239 1318.93 267.144 1319.48 272.065C1320.42 280.447 1308.85 288.592 1293.62 290.254C1291.57 290.479 1289.56 290.561 1287.61 290.536C1292.47 291.982 1298.38 292.533 1304.67 291.841C1319.89 290.183 1331.47 282.045 1330.52 273.652Z" fill="#2C1248"/>
</g>
<g id="Group_48">
<path id="Vector_31" d="M1039.23 478.243C1052.34 486.31 1053.31 508.069 1041.4 526.85C1029.49 545.621 1009.2 554.303 996.092 546.228C982.975 538.153 981.993 516.391 993.91 497.62C1005.82 478.846 1026.11 470.175 1039.23 478.243Z" fill="#DADFE4"/>
</g>
<g id="Group_49" opacity="0.15">
<path id="Vector_32" opacity="0.15" d="M1046.82 468.602C1060.8 477.22 1063.75 498.224 1055.16 518.811C1067.15 498.128 1065.65 474.941 1051.35 466.143C1043.95 461.589 1034.51 461.754 1025.25 465.705C1033.02 463.956 1040.57 464.764 1046.82 468.602Z" fill="#2C1248"/>
</g>
<g id="Group_50" opacity="0.15">
<path id="Vector_33" opacity="0.15" d="M987.251 553.432C969.28 542.383 966.737 513.989 980.388 487.782C978.937 489.701 977.515 491.687 976.19 493.779C958.542 521.588 959.982 553.827 979.414 565.789C998.846 577.745 1028.89 564.89 1046.54 537.081C1047.87 534.986 1049.06 532.851 1050.17 530.724C1032.24 554.303 1005.21 564.495 987.251 553.432Z" fill="#2C1248"/>
</g>
<g id="Group_51" opacity="0.15">
<path id="Vector_34" opacity="0.15" d="M1039.22 478.243C1026.11 470.175 1005.82 478.846 993.909 497.62C992.043 500.566 990.532 503.571 989.296 506.595C1001.23 493.581 1017.37 488.434 1028.43 495.246C1039.49 502.058 1041.89 518.603 1035.23 534.872C1037.44 532.452 1039.54 529.789 1041.4 526.85C1053.32 508.069 1052.34 486.31 1039.22 478.243Z" fill="#2C1248"/>
</g>
<g id="Group_52">
<path id="Vector_35" d="M1141.71 615.776C1170.12 633.262 1181.39 665.971 1166.88 688.841C1152.37 711.711 1117.58 716.067 1089.17 698.588C1060.76 681.108 1049.5 648.396 1064.01 625.526C1078.51 602.656 1113.31 598.296 1141.71 615.776Z" fill="#DADFE4"/>
</g>
<g id="Group_53" opacity="0.15">
<path id="Vector_36" opacity="0.15" d="M1064.01 657.607C1078.52 634.737 1113.31 630.363 1141.71 647.849C1155.8 656.52 1165.65 668.938 1170.26 682.036C1179.01 659.858 1167.42 631.597 1141.71 615.776C1113.31 598.296 1078.52 602.656 1064.01 625.526C1056.69 637.055 1055.95 651.084 1060.62 664.408C1061.55 662.073 1062.63 659.787 1064.01 657.607Z" fill="#2C1248"/>
</g>
<g id="Group_54" opacity="0.15">
<path id="Vector_37" opacity="0.15" d="M1200.55 663.58C1201.08 675.024 1198.62 686.28 1192.71 696.359C1173.15 729.731 1123.69 737.671 1082.25 714.1C1059.52 701.181 1043.99 681.472 1037.76 660.804C1038.97 687.222 1056.3 714.667 1085.22 731.113C1126.67 754.682 1176.13 746.737 1195.69 713.376C1204.53 698.299 1205.68 680.615 1200.55 663.58Z" fill="#2C1248"/>
</g>
<g id="Group_55" opacity="0.15">
<path id="Vector_38" opacity="0.15" d="M1168.13 812.454C1179.25 794.918 1208.84 793.366 1234.23 808.997C1251.73 819.763 1262.65 835.871 1264.11 850.588C1265.49 834.424 1254.15 815.251 1234.23 802.993C1208.84 787.376 1179.25 788.921 1168.13 806.45C1164.67 811.897 1163.41 818.246 1164.07 824.878C1164.45 820.444 1165.74 816.218 1168.13 812.454Z" fill="#2C1248"/>
</g>
<g id="Group_56" opacity="0.15">
<path id="Vector_39" opacity="0.15" d="M1246.5 836.812C1246.03 839.261 1245.29 841.617 1243.94 843.755C1235.75 856.659 1213.95 857.799 1195.27 846.302C1186.05 840.622 1179.35 832.932 1175.86 825.048C1173.49 837.373 1181.83 852.712 1197.43 862.303C1216.12 873.811 1237.91 872.671 1246.1 859.76C1250.24 853.216 1250.08 844.912 1246.5 836.812Z" fill="#2C1248"/>
</g>
<g id="Group_57">
<path id="Vector_40" d="M1477.84 619.946C1520.37 646.121 1535.61 697.681 1511.87 735.099C1488.13 772.517 1434.4 781.626 1391.86 755.454C1349.33 729.272 1334.1 677.722 1357.83 640.304C1381.57 602.882 1435.31 593.774 1477.84 619.946Z" fill="#DADFE4"/>
</g>
<g id="Group_58" opacity="0.15">
<path id="Vector_41" opacity="0.15" d="M1381.55 687.12C1405.29 649.702 1459.01 640.583 1501.55 666.761C1509.28 671.52 1516.07 677.133 1521.93 683.331C1517.88 658.803 1502.49 635.111 1477.84 619.946C1435.31 593.774 1381.57 602.882 1357.83 640.304C1338.4 670.917 1345.11 710.995 1371.48 738.895C1368.55 721.088 1371.57 702.853 1381.55 687.12Z" fill="#2C1248"/>
</g>
<g id="Group_59" opacity="0.15">
<path id="Vector_42" opacity="0.15" d="M1546.16 672.977C1546.33 694.683 1540.37 716.911 1527.65 736.948C1493.24 791.172 1422.6 808.814 1369.86 776.356C1343.83 760.33 1327.05 735.1 1320.85 707.136C1321.13 744.155 1339.31 779.644 1372.55 800.111C1425.29 832.569 1495.93 814.927 1530.34 760.697C1547.76 733.244 1552.53 701.675 1546.16 672.977Z" fill="#2C1248"/>
</g>
<g id="Group_60">
<path id="Vector_43" d="M1219.18 514.172C1216.72 521.157 1206.37 523.955 1196.07 520.434C1185.78 516.913 1179.42 508.398 1181.88 501.423C1184.34 494.442 1194.68 491.641 1204.99 495.162C1215.29 498.682 1221.64 507.202 1219.18 514.172Z" fill="#DADFE4"/>
</g>
<g id="Group_61" opacity="0.15">
<path id="Vector_44" opacity="0.15" d="M1223.78 502.771C1225.82 506.637 1226.41 510.733 1225.08 514.497C1221.75 523.958 1207.73 527.75 1193.77 522.977C1187.33 520.78 1182.05 517.125 1178.53 512.909C1181.62 518.758 1188.06 524.081 1196.47 526.956C1210.42 531.729 1224.45 527.937 1227.78 518.476C1229.58 513.378 1227.88 507.692 1223.78 502.771Z" fill="#2C1248"/>
</g>
<g id="Group_62" opacity="0.15">
<path id="Vector_45" opacity="0.15" d="M1186.73 506.369C1189.19 499.392 1199.53 496.587 1209.83 500.115C1212.64 501.071 1215.13 502.432 1217.25 504.013C1214.73 500.309 1210.44 497.024 1204.99 495.162C1194.68 491.641 1184.34 494.442 1181.88 501.423C1180.1 506.493 1183 512.352 1188.66 516.543C1186.42 513.262 1185.57 509.65 1186.73 506.369Z" fill="#2C1248"/>
</g>
<g id="Group_63" opacity="0.15">
<path id="Vector_46" opacity="0.15" d="M1375.2 489.973C1367.92 487.479 1360.43 489.295 1356.32 493.92C1359.43 493.394 1362.85 493.624 1366.22 494.777C1375.36 497.896 1380.63 506.521 1377.97 514.035C1377.45 515.509 1376.66 516.829 1375.67 517.982C1380.92 517.04 1385.29 513.933 1386.95 509.241C1389.59 501.72 1384.34 493.098 1375.2 489.973Z" fill="#2C1248"/>
</g>
<g id="Group_64" opacity="0.15">
<path id="Vector_47" opacity="0.15" d="M1370.04 523.224C1351.37 518.18 1339.71 501.635 1343.99 486.279C1344.74 483.573 1346 481.125 1347.56 478.892C1342.45 482.363 1338.64 487.242 1336.99 493.172C1332.7 508.528 1344.36 525.076 1363.03 530.128C1378.35 534.273 1393.51 529.295 1400.87 518.91C1392.76 524.356 1381.42 526.311 1370.04 523.224Z" fill="#2C1248"/>
</g>
<g id="Group_65" opacity="0.15">
<path id="Vector_48" opacity="0.15" d="M1557.6 516.352C1557.78 519.065 1556.93 522.018 1554.92 524.533C1551.08 529.362 1544.64 530.71 1540.54 527.538C1539.75 526.935 1539.12 526.205 1538.63 525.39C1538.85 527.75 1539.8 529.916 1541.69 531.362C1545.78 534.523 1552.22 533.176 1556.07 528.357C1559.1 524.547 1559.52 519.781 1557.6 516.352Z" fill="#2C1248"/>
</g>
<g id="Group_66" opacity="0.15">
<path id="Vector_49" opacity="0.15" d="M1405.87 374.438C1411.44 370.949 1418.35 371.845 1421.31 376.417C1422.77 378.696 1422.98 381.437 1422.15 384.065C1424.94 380.544 1425.57 376.025 1423.36 372.596C1420.41 368.021 1413.5 367.125 1407.93 370.614C1405.13 372.363 1403.33 374.903 1402.48 377.553C1403.41 376.392 1404.49 375.302 1405.87 374.438Z" fill="#2C1248"/>
</g>
<g id="Group_67" opacity="0.15">
<path id="Vector_50" opacity="0.15" d="M1554.89 418.996C1553.25 413.817 1546.82 411.196 1540.52 413.137C1537.8 413.973 1535.62 415.553 1534.07 417.465C1535.22 416.664 1536.49 415.976 1537.94 415.532C1544.23 413.592 1550.67 416.213 1552.31 421.391C1553.25 424.351 1552.38 427.473 1550.33 429.988C1554.18 427.325 1556.16 422.996 1554.89 418.996Z" fill="#2C1248"/>
</g>
<g id="Group_68" opacity="0.15">
<path id="Vector_51" opacity="0.15" d="M1417.36 308.954C1418.8 301.987 1430.37 298.441 1443.2 301.02C1446.66 301.718 1449.82 302.805 1452.61 304.135C1449.08 300.05 1442.6 296.526 1434.75 294.945C1421.92 292.367 1410.35 295.919 1408.91 302.883C1407.86 307.98 1412.57 313.462 1420.17 317.06C1417.92 314.475 1416.8 311.659 1417.36 308.954Z" fill="#2C1248"/>
</g>
<g id="Group_69">
<g id="Group_70">
<g id="Group_71">
<path id="Vector_52" d="M1000.98 694.545C991.41 674.801 976.534 662.027 967.866 666.222C966.111 667.065 965.452 668.613 965.118 668.836C970.896 670.79 982.634 682.029 991.109 699.509C999.261 716.329 998.18 731.949 996.621 738.119C999.773 739.202 1002.3 737.819 1002.51 737.72C1011.24 733.625 1010.54 714.293 1000.98 694.545Z" fill="#F6F7F9"/>
</g>
</g>
<g id="Group_72">
<path id="Vector_53" d="M990.958 699.206C1000.23 718.333 1003.76 735.713 998.857 738.017C993.949 740.324 982.455 726.69 973.192 707.563C963.915 688.432 960.387 671.058 965.29 668.755C970.198 666.448 981.688 680.082 990.958 699.206Z" fill="#BCC4CF"/>
</g>
<g id="Group_73" opacity="0.15">
<path id="Vector_54" opacity="0.15" d="M990.959 699.205C990.056 697.343 989.117 695.579 988.183 693.829C995.515 710.67 998.011 725.042 993.577 727.13C989.153 729.211 979.378 718.258 970.696 702.052C971.48 703.872 972.29 705.693 973.199 707.562C982.459 726.689 993.949 740.324 998.857 738.017C1003.77 735.706 1000.23 718.332 990.959 699.205Z" fill="#2C1248"/>
</g>
</g>
<g id="Group_74" opacity="0.15">
<path id="Vector_55" opacity="0.15" d="M1549.47 434.81C1539.95 437.847 1530.09 433.797 1527.44 425.761C1525.97 421.274 1527.12 416.537 1530.02 412.656C1524.61 416.843 1522 423.366 1523.98 429.36C1526.62 437.396 1536.49 441.445 1546.01 438.408C1550.21 437.057 1553.57 434.531 1555.87 431.459C1554.03 432.88 1551.88 434.037 1549.47 434.81Z" fill="#2C1248"/>
</g>
</g>
</g>
</g>
</g>
</svg>
