<svg width="84" height="84" viewBox="0 0 84 84" fill="none" xmlns="http://www.w3.org/2000/svg">
<circle cx="42" cy="42" r="42" fill="#2E3338"/>
<path d="M31.0683 22.1366C32.2106 22.1366 33.1366 21.2106 33.1366 20.0683C33.1366 18.926 32.2106 18 31.0683 18C29.926 18 29 18.926 29 20.0683C29 21.2106 29.926 22.1366 31.0683 22.1366Z" fill="url(#paint0_linear)"/>
<path d="M31.0683 21.3316C31.766 21.3316 32.3316 20.766 32.3316 20.0683C32.3316 19.3706 31.766 18.8051 31.0683 18.8051C30.3706 18.8051 29.8051 19.3706 29.8051 20.0683C29.8051 20.766 30.3706 21.3316 31.0683 21.3316Z" fill="#0D47A1"/>
<path d="M13.7121 27.4242C14.6577 27.4242 15.4242 26.6577 15.4242 25.7121C15.4242 24.7665 14.6577 24 13.7121 24C12.7665 24 12 24.7665 12 25.7121C12 26.6577 12.7665 27.4242 13.7121 27.4242Z" fill="url(#paint1_linear)"/>
<path d="M14.1852 27.3704C14.8398 27.3704 15.3704 26.8398 15.3704 26.1852C15.3704 25.5306 14.8398 25 14.1852 25C13.5306 25 13 25.5306 13 26.1852C13 26.8398 13.5306 27.3704 14.1852 27.3704Z" fill="#0D47A1"/>
<path d="M62 69.4269L60.2229 69.037L60.612 67.2597L59.4273 67L59.0375 68.7773L57.2597 68.3882L57 69.5731L58.7778 69.963L58.3887 71.741L59.5734 72L59.9633 70.2227L61.7403 70.6118L62 69.4269Z" fill="white"/>
<path d="M69 33.4562L67.9337 33.2222L68.1672 32.1558L67.4564 32L67.2225 33.0664L66.1558 32.8329L66 33.5438L67.0667 33.7778L66.8332 34.8446L67.544 35L67.778 33.9336L68.8442 34.1671L69 33.4562Z" fill="white"/>
<path d="M22 60.4562L20.9337 60.2222L21.1672 59.1558L20.4564 59L20.2225 60.0664L19.1558 59.8329L19 60.5438L20.0667 60.7778L19.8332 61.8446L20.544 62L20.778 60.9336L21.8442 61.1671L22 60.4562Z" fill="white"/>
<path d="M61 19.4562L59.9337 19.2222L60.1672 18.1558L59.4564 18L59.2225 19.0664L58.1558 18.8329L58 19.5438L59.0667 19.7778L58.8332 20.8446L59.544 21L59.778 19.9336L60.8442 20.1671L61 19.4562Z" fill="white"/>
<path d="M33 77.4562L31.9337 77.2222L32.1672 76.1558L31.4564 76L31.2225 77.0664L30.1558 76.8329L30 77.5438L31.0667 77.7778L30.8332 78.8446L31.544 79L31.778 77.9336L32.8442 78.1671L33 77.4562Z" fill="white"/>
<path d="M41.7131 17.9187V24.4807C41.7131 24.4807 44.4151 23.2841 47.1171 24.4807C49.8191 25.6773 52.5211 24.4807 52.5211 24.4807V17.9187C52.5211 17.9187 49.8191 19.1153 47.1171 17.9187C44.4151 16.7221 41.7131 17.9187 41.7131 17.9187Z" fill="#6C63FF"/>
<path d="M52.5211 22.9367V24.4807C52.5211 24.4807 49.8191 25.6773 47.1171 24.4807C44.4151 23.2841 41.7131 24.4807 41.7131 24.4807V22.9367C41.7131 22.9367 44.4151 21.7401 47.1171 22.9367C49.8191 24.1333 52.5211 22.9367 52.5211 22.9367Z" fill="#5D56D7"/>
<path d="M25.9719 41.295C27.3715 38.3016 29.596 35.7695 32.3842 33.9959C35.1724 32.2224 38.4086 31.2809 41.7131 31.2821C57.2111 31.2821 64.9273 50.1962 53.8838 61.0468C43.0023 71.7352 24.343 64.0923 24.343 48.6522" fill="#6C63FF"/>
<path d="M53.4168 61.4868C53.1968 61.6914 52.9652 61.8728 52.7335 62.0813C44.2415 59.0473 34.1746 53.3653 26.9216 47.7335C26.8386 47.669 26.7847 47.5743 26.7717 47.47C26.7587 47.3658 26.7876 47.2606 26.8521 47.1777C26.9166 47.0948 27.0114 47.0409 27.1156 47.0278C27.2199 47.0148 27.325 47.0437 27.4079 47.1082C36.3979 54.1026 48.391 60.0084 53.4168 61.4868Z" fill="#949AAF"/>
<path d="M47.7849 64.9299C36.4982 69.145 24.343 60.7996 24.343 48.6521L24.4433 48.2044C24.9101 52.5245 26.9791 56.5129 30.2421 59.3824C33.5051 62.252 37.7251 63.7943 42.0694 63.7051C46.4138 63.616 50.567 61.9017 53.7095 58.9007C56.852 55.8997 58.7556 51.8298 59.0446 47.4941C59.2946 51.2252 58.3339 54.9373 56.3053 58.0786C54.2767 61.22 51.2885 63.6228 47.7849 64.9299Z" fill="#5D56D7"/>
<path d="M41.3271 34.3701V17.386C41.3271 17.2836 41.3678 17.1854 41.4401 17.1131C41.5125 17.0407 41.6107 17 41.7131 17C41.8155 17 41.9136 17.0407 41.986 17.1131C42.0584 17.1854 42.0991 17.2836 42.0991 17.386V34.3701C42.0991 34.4725 42.0584 34.5707 41.986 34.6431C41.9136 34.7154 41.8155 34.7561 41.7131 34.7561C41.6107 34.7561 41.5125 34.7154 41.4401 34.6431C41.3678 34.5707 41.3271 34.4725 41.3271 34.3701Z" fill="#949AAF"/>
<path d="M21.6603 42.0478C21.733 42.1225 21.773 42.223 21.7716 42.3273C21.7701 42.4315 21.7273 42.5309 21.6526 42.6036C21.5778 42.6763 21.4773 42.7163 21.3731 42.7149C21.2688 42.7134 21.1694 42.6706 21.0967 42.5959C18.6919 40.11 16.0864 36.6862 17.3139 34.567C18.5414 32.4479 23.351 32.637 30.4805 35.146C30.5451 35.1692 30.6024 35.2092 30.6464 35.2618C30.4303 35.4432 30.218 35.6247 30.0134 35.8177C19.0316 31.9769 13.535 33.6406 21.6603 42.0478Z" fill="#7AA8D7"/>
<path d="M52.9496 62.1623C43.6135 58.654 34.8437 53.7924 26.9215 47.7335C26.8793 47.7024 26.8438 47.6631 26.8173 47.6179C26.7908 47.5726 26.7738 47.5225 26.7673 47.4705C26.7608 47.4185 26.765 47.3657 26.7795 47.3154C26.7941 47.265 26.8187 47.2181 26.852 47.1776C27.4619 46.4056 28.1181 48.5016 38.3819 54.4229C44.7702 58.1054 51.1586 60.8228 53.4167 61.4868C59.8436 63.7333 64.4409 64.0614 65.433 62.3437C66.425 60.626 63.8349 56.8123 58.6972 52.3732C58.759 52.1005 58.813 51.8225 58.8593 51.5395C58.9261 51.5539 58.9884 51.5844 59.0408 51.6283C71.1574 62.0079 67.8262 67.4196 52.9496 62.1623Z" fill="#7AA8D7"/>
<path d="M24.343 48.6522C26.4748 48.6522 28.203 46.924 28.203 44.7922C28.203 42.6603 26.4748 40.9321 24.343 40.9321C22.2112 40.9321 20.483 42.6603 20.483 44.7922C20.483 46.924 22.2112 48.6522 24.343 48.6522Z" fill="#7770EA"/>
<path d="M24.3431 48.6522C23.7706 48.6523 23.2053 48.5251 22.6881 48.2798C22.1708 48.0344 21.7146 47.6771 21.3526 47.2337C20.9905 46.7904 20.7315 46.272 20.5945 45.7162C20.4574 45.1604 20.4457 44.581 20.5602 44.0201C20.7374 44.8927 21.2108 45.6772 21.9002 46.2407C22.5896 46.8042 23.4527 47.112 24.3431 47.112C25.2334 47.112 26.0965 46.8042 26.7859 46.2407C27.4753 45.6772 27.9487 44.8927 28.1259 44.0201C28.2404 44.581 28.2287 45.1604 28.0916 45.7162C27.9546 46.272 27.6956 46.7904 27.3336 47.2337C26.9715 47.6771 26.5153 48.0344 25.998 48.2798C25.4808 48.5251 24.9155 48.6523 24.3431 48.6522Z" fill="#6962D6"/>
<defs>
<linearGradient id="paint0_linear" x1="911.291" y1="973.434" x2="911.291" y2="923.203" gradientUnits="userSpaceOnUse">
<stop stop-color="#808080" stop-opacity="0.25"/>
<stop offset="0.53514" stop-color="#808080" stop-opacity="0.12"/>
<stop offset="1" stop-color="#808080" stop-opacity="0.1"/>
</linearGradient>
<linearGradient id="paint1_linear" x1="2087.25" y1="498.278" x2="2087.25" y2="463.86" gradientUnits="userSpaceOnUse">
<stop stop-color="#808080" stop-opacity="0.25"/>
<stop offset="0.53514" stop-color="#808080" stop-opacity="0.12"/>
<stop offset="1" stop-color="#808080" stop-opacity="0.1"/>
</linearGradient>
</defs>
</svg>
