<svg width="84" height="84" viewBox="0 0 84 84" fill="none" xmlns="http://www.w3.org/2000/svg">
<circle cx="42" cy="42" r="42" fill="white"/>
<path d="M25.0006 17.0467H24.3392C24.2045 17.0467 23.8714 16.518 23.8714 16.3663V15.7518C23.8714 15.2723 23.3289 13.9568 22.8494 13.9568C22.3699 13.9568 21.8274 15.2723 21.8274 15.7518V16.3663C21.8274 16.5825 21.6605 17.0467 21.4564 17.0467H20.795C20.3155 17.0467 19 17.4189 19 17.8984C19 18.3779 20.3155 18.75 20.795 18.75H21.5838C21.8336 18.75 21.8274 19.007 21.8274 19.1378V19.9574C21.8274 20.437 22.3699 21.7525 22.8494 21.7525C23.3289 21.7525 23.8714 20.437 23.8714 19.9574V19.1378C23.8714 19.0292 24.0907 18.75 24.2118 18.75H25.0006C25.4801 18.75 26.7957 18.3779 26.7957 17.8984C26.7957 17.4188 25.4801 17.0467 25.0006 17.0467Z" fill="#2196F3"/>
<path d="M76.0006 33.09H75.3392C75.2045 33.09 74.8714 32.5613 74.8714 32.4095V31.7951C74.8714 31.3155 74.3289 30 73.8494 30C73.3699 30 72.8274 31.3155 72.8274 31.7951V32.4095C72.8274 32.6258 72.6605 33.09 72.4564 33.09H71.795C71.3155 33.09 70 33.4621 70 33.9416C70 34.4211 71.3155 34.7933 71.795 34.7933H72.5838C72.8336 34.7933 72.8274 35.0502 72.8274 35.181V36.0006C72.8274 36.4802 73.3699 37.7957 73.8494 37.7957C74.3289 37.7957 74.8714 36.4802 74.8714 36.0006V35.181C74.8714 35.0724 75.0907 34.7933 75.2118 34.7933H76.0006C76.4801 34.7933 77.7957 34.4212 77.7957 33.9416C77.7957 33.4621 76.4801 33.09 76.0006 33.09Z" fill="#6C63FF"/>
<path d="M14.0006 61.09H13.3392C13.2045 61.09 12.8714 60.5613 12.8714 60.4095V59.7951C12.8714 59.3155 12.3289 58 11.8494 58C11.3699 58 10.8274 59.3155 10.8274 59.7951V60.4095C10.8274 60.6258 10.6605 61.09 10.4564 61.09H9.79504C9.3155 61.09 8 61.4621 8 61.9416C8 62.4211 9.3155 62.7933 9.79504 62.7933H10.5838C10.8336 62.7933 10.8274 63.0502 10.8274 63.181V64.0006C10.8274 64.4802 11.3699 65.7957 11.8494 65.7957C12.3289 65.7957 12.8714 64.4802 12.8714 64.0006V63.181C12.8714 63.0724 13.0907 62.7933 13.2118 62.7933H14.0006C14.4801 62.7933 15.7957 62.4212 15.7957 61.9416C15.7957 61.4621 14.4801 61.09 14.0006 61.09Z" fill="#564FCC"/>
<path d="M35.1841 9.13663C36.3264 9.13663 37.2524 8.21061 37.2524 7.06831C37.2524 5.92602 36.3264 5 35.1841 5C34.0418 5 33.1158 5.92602 33.1158 7.06831C33.1158 8.21061 34.0418 9.13663 35.1841 9.13663Z" fill="url(#paint0_linear)"/>
<path d="M35.1841 8.33161C35.8818 8.33161 36.4474 7.76602 36.4474 7.06833C36.4474 6.37064 35.8818 5.80505 35.1841 5.80505C34.4864 5.80505 33.9208 6.37064 33.9208 7.06833C33.9208 7.76602 34.4864 8.33161 35.1841 8.33161Z" fill="#0D47A1"/>
<path d="M32 64.5796V64L52.5 64.5C44.7146 71.4555 35.7561 67.2845 32 64.5796Z" fill="#C9C7E1"/>
<path d="M11.0683 26.1366C12.2106 26.1366 13.1366 25.2106 13.1366 24.0683C13.1366 22.926 12.2106 22 11.0683 22C9.92603 22 9 22.926 9 24.0683C9 25.2106 9.92603 26.1366 11.0683 26.1366Z" fill="url(#paint1_linear)"/>
<path d="M10.9973 25.3032C11.6558 25.3032 12.1896 24.7694 12.1896 24.1109C12.1896 23.4524 11.6558 22.9186 10.9973 22.9186C10.3388 22.9186 9.80499 23.4524 9.80499 24.1109C9.80499 24.7694 10.3388 25.3032 10.9973 25.3032Z" fill="#0D47A1"/>
<path d="M58 81.0219C44.0645 86.1801 32.5376 83.601 26 81.0219L32 64C40.671 70.1898 49.0538 66.923 52.3226 64.5158L58 81.0219Z" fill="#DAD9E8"/>
<path d="M19.7059 77.2564L19.6242 77.5371L26.3695 80.9759L33.9391 74.5685L32.1604 64.4112C29.2598 65.4884 26.6361 67.201 24.4812 69.4235C22.3263 71.646 20.6948 74.3223 19.7059 77.2564Z" fill="#6C63FF"/>
<path d="M64.1286 77.2564L64.2103 77.5371L57.4651 80.9759L49.8954 74.5685L51.6742 64.4112C54.5747 65.4884 57.1984 67.201 59.3533 69.4235C61.5082 71.646 63.1398 74.3223 64.1286 77.2564Z" fill="#6C63FF"/>
<path d="M62.2907 40.4217C59.7231 31.342 51.7339 24 42.2703 24C32.8068 24 24.8176 31.342 22.25 40.4217C21.1228 40.4217 20.0418 40.8695 19.2448 41.6665C18.4478 42.4636 18 43.5446 18 44.6717V49.8401H21.6358C23.2015 59.716 31.8427 66.2618 42.2703 66.2618C52.6979 66.2618 61.3392 59.716 62.9049 49.8401H66.6506V44.7816C66.6506 44.209 66.5378 43.6421 66.3187 43.1131C66.0996 42.5842 65.7784 42.1036 65.3736 41.6987C64.9688 41.2939 64.4881 40.9727 63.9591 40.7536C63.4302 40.5345 62.8633 40.4217 62.2907 40.4217Z" fill="#DAD9E8"/>
<path d="M42.1496 63.6054C51.4858 63.6054 59.0544 56.0369 59.0544 46.7006C59.0544 37.3644 51.4858 29.7959 42.1496 29.7959C32.8134 29.7959 25.2449 37.3644 25.2449 46.7006C25.2449 56.0369 32.8134 63.6054 42.1496 63.6054Z" fill="#6C63FF"/>
<path opacity="0.2" d="M44.2836 33.5304C46.9007 33.5284 49.4823 34.135 51.8246 35.3024C54.1668 36.4697 56.2055 38.1658 57.7795 40.2565C56.8643 38.0361 55.4864 36.0361 53.7376 34.3899C51.9888 32.7436 49.9094 31.4889 47.6377 30.7093C45.3661 29.9297 42.9544 29.643 40.5633 29.8685C38.1722 30.0939 35.8566 30.8262 33.7706 32.0167C31.6847 33.2072 29.8764 34.8284 28.4662 36.7725C27.0559 38.7166 26.0761 40.9388 25.5919 43.2912C25.1078 45.6436 25.1304 48.0722 25.6584 50.4152C26.1863 52.7581 27.2074 54.9617 28.6537 56.8791C27.5956 54.311 27.1866 51.5217 27.4626 48.7579C27.7387 45.9941 28.6913 43.3409 30.2364 41.0328C31.7815 38.7246 33.8714 36.8327 36.3214 35.5242C38.7714 34.2157 41.5061 33.5309 44.2836 33.5303V33.5304Z" fill="black"/>
<path opacity="0.2" d="M41.4347 55.2282C46.8908 55.2282 51.3138 54.4657 51.3138 53.5249C51.3138 52.5842 46.8908 51.8217 41.4347 51.8217C35.9786 51.8217 31.5555 52.5842 31.5555 53.5249C31.5555 54.4657 35.9786 55.2282 41.4347 55.2282Z" fill="black"/>
<path d="M64.0879 25.1099H62.7253V46.5714H64.0879V25.1099Z" fill="#E6E6E6"/>
<path d="M63.4066 26.8132C65.288 26.8132 66.8132 25.288 66.8132 23.4066C66.8132 21.5252 65.288 20 63.4066 20C61.5252 20 60 21.5252 60 23.4066C60 25.288 61.5252 26.8132 63.4066 26.8132Z" fill="#6C63FF"/>
<path d="M76.1923 49.3846C76.8508 49.3846 77.3846 48.8508 77.3846 48.1923C77.3846 47.5338 76.8508 47 76.1923 47C75.5338 47 75 47.5338 75 48.1923C75 48.8508 75.5338 49.3846 76.1923 49.3846Z" fill="#0D47A1"/>
<path d="M10.8517 46.7033C11.322 46.7033 11.7033 46.322 11.7033 45.8516C11.7033 45.3813 11.322 45 10.8517 45C10.3813 45 10 45.3813 10 45.8516C10 46.322 10.3813 46.7033 10.8517 46.7033Z" fill="#0071BC"/>
<path d="M43.7121 21.4242C44.6577 21.4242 45.4242 20.6577 45.4242 19.7121C45.4242 18.7665 44.6577 18 43.7121 18C42.7665 18 42 18.7665 42 19.7121C42 20.6577 42.7665 21.4242 43.7121 21.4242Z" fill="url(#paint2_linear)"/>
<path d="M43.7121 20.8973C44.3666 20.8973 44.8973 20.3666 44.8973 19.7121C44.8973 19.0575 44.3666 18.5269 43.7121 18.5269C43.0575 18.5269 42.5269 19.0575 42.5269 19.7121C42.5269 20.3666 43.0575 20.8973 43.7121 20.8973Z" fill="#82A9FF"/>
<path d="M51.7121 15.4242C52.6577 15.4242 53.4242 14.6577 53.4242 13.7121C53.4242 12.7665 52.6577 12 51.7121 12C50.7665 12 50 12.7665 50 13.7121C50 14.6577 50.7665 15.4242 51.7121 15.4242Z" fill="url(#paint3_linear)"/>
<path d="M51.7121 14.8973C52.3666 14.8973 52.8973 14.3666 52.8973 13.7121C52.8973 13.0575 52.3666 12.5269 51.7121 12.5269C51.0575 12.5269 50.5269 13.0575 50.5269 13.7121C50.5269 14.3666 51.0575 14.8973 51.7121 14.8973Z" fill="#0D47A1"/>
<defs>
<linearGradient id="paint0_linear" x1="915.407" y1="960.434" x2="915.407" y2="910.203" gradientUnits="userSpaceOnUse">
<stop stop-color="#808080" stop-opacity="0.25"/>
<stop offset="0.53514" stop-color="#808080" stop-opacity="0.12"/>
<stop offset="1" stop-color="#808080" stop-opacity="0.1"/>
</linearGradient>
<linearGradient id="paint1_linear" x1="2210.88" y1="596.865" x2="2210.88" y2="546.634" gradientUnits="userSpaceOnUse">
<stop stop-color="#808080" stop-opacity="0.25"/>
<stop offset="0.53514" stop-color="#808080" stop-opacity="0.12"/>
<stop offset="1" stop-color="#808080" stop-opacity="0.1"/>
</linearGradient>
<linearGradient id="paint2_linear" x1="2117.25" y1="492.278" x2="2117.25" y2="457.86" gradientUnits="userSpaceOnUse">
<stop stop-color="#808080" stop-opacity="0.25"/>
<stop offset="0.53514" stop-color="#808080" stop-opacity="0.12"/>
<stop offset="1" stop-color="#808080" stop-opacity="0.1"/>
</linearGradient>
<linearGradient id="paint3_linear" x1="2125.25" y1="486.278" x2="2125.25" y2="451.86" gradientUnits="userSpaceOnUse">
<stop stop-color="#808080" stop-opacity="0.25"/>
<stop offset="0.53514" stop-color="#808080" stop-opacity="0.12"/>
<stop offset="1" stop-color="#808080" stop-opacity="0.1"/>
</linearGradient>
</defs>
</svg>
