<svg width="512" height="332" viewBox="0 0 512 332" fill="none" xmlns="http://www.w3.org/2000/svg">
<path d="M495.484 0.839111H16.5164L7.81738 11.0001V305.151C7.81738 314.273 15.2124 321.667 24.3334 321.667H502L512 314.646V17.3561C512 8.23312 504.605 0.839111 495.484 0.839111V0.839111Z" fill="#95CC81"/>
<path d="M16.516 265.097V0.839111C7.395 0.839111 0 8.23312 0 17.3551V314.645C0 323.767 7.395 331.161 16.516 331.161H495.484C504.605 331.161 512 323.766 512 314.645H66.065C38.7 314.645 16.516 292.462 16.516 265.097Z" fill="#7DBD80"/>
<path d="M440.141 162.473L264.588 55.6141C259.313 52.4031 252.688 52.4031 247.413 55.6141L71.8592 162.473C69.2162 164.082 69.2162 167.919 71.8592 169.527L247.412 276.386C252.687 279.597 259.312 279.597 264.587 276.386L440.14 169.527C442.784 167.918 442.784 164.082 440.141 162.473V162.473Z" fill="#FFE07D"/>
<path d="M256 99.936C231.435 99.936 210.002 113.343 198.618 133.238L192.002 149.54C190.653 154.802 189.935 160.317 189.935 165.999C189.935 202.485 219.513 232.063 255.999 232.063C285.833 232.063 311.049 212.287 319.251 185.128L322.043 167.619C322.056 167.08 322.063 166.54 322.063 165.999C322.064 129.514 292.486 99.936 256 99.936V99.936Z" fill="#5055A0"/>
<path d="M192.002 149.541C237.896 149.913 281.787 162.222 319.252 185.13C320.934 179.565 321.898 173.699 322.044 167.621C285.139 146.414 242.812 134.614 198.617 133.239C195.729 138.288 193.484 143.767 192.002 149.541V149.541Z" fill="white"/>
</svg>
