<svg width="84" height="84" viewBox="0 0 84 84" fill="none" xmlns="http://www.w3.org/2000/svg">
<circle cx="42" cy="42" r="42" fill="#2E3338"/>
<path d="M73.5932 28.7848C70.7603 21.5764 62.0338 17.2537 54.6427 20.1143C46.206 23.3795 49.0033 36.7988 41.3402 39.5123C37.2006 40.9781 31.0812 35.5027 26.899 34.6631C19.1922 33.1159 12.2155 38.5538 10.4975 46.0841C8.74484 53.7667 11.5559 64.0278 19.9967 66.1129C30.0513 68.5967 35.2887 59.5583 43.7233 56.963C52.379 54.2996 62.0032 60.5897 69.1688 52.9366C74.4628 47.2826 76.3984 35.9227 73.5932 28.7848Z" fill="#6C63FF"/>
<path opacity="0.1" d="M70.422 31.954C70.422 26.9491 66.3648 22.892 61.36 22.892C57.4826 22.892 54.1755 25.328 52.8817 28.7524H20.1132C18.7135 28.7524 17.5789 29.887 17.5789 31.2866V59.3418C17.5789 60.7415 18.7135 61.8761 20.1132 61.8761H64.7632C66.1628 61.8761 67.2974 60.7415 67.2974 59.3418V38.7968C69.2105 37.1352 70.422 34.6869 70.422 31.954Z" fill="#2626BC"/>
<path d="M64.7639 58.7083H20.1138C18.7141 58.7083 17.5795 57.5737 17.5795 56.1741V28.1188C17.5795 26.7192 18.7141 25.5846 20.1138 25.5846H64.7638C66.1634 25.5846 67.298 26.7192 67.298 28.1188V56.1741C67.2981 57.5737 66.1634 58.7083 64.7639 58.7083Z" fill="#9FB0FE"/>
<path d="M67.2979 28.1194V38.8266C65.7076 40.2065 63.6321 41.0428 61.3601 41.0428C56.355 41.0428 52.2977 36.9855 52.2977 31.9816C52.2977 29.4854 53.3076 27.2236 54.9409 25.5852H64.7636C66.1625 25.5852 67.2979 26.7193 67.2979 28.1194Z" fill="#8399FE"/>
<path d="M67.2978 28.1203V31.3147L44.7545 48.6324C44.0931 49.1405 43.2707 49.4193 42.4382 49.4193C41.6057 49.4193 40.7834 49.1405 40.1219 48.6324L17.5786 31.3147V28.1203C17.5786 26.7201 18.714 25.5861 20.1129 25.5861H64.7635C66.1624 25.5861 67.2978 26.7201 67.2978 28.1203Z" fill="#8399FE"/>
<path d="M43.2102 37.6709L67.2976 56.1739C67.2976 57.5736 66.163 58.7082 64.7634 58.7082H20.1132C18.7136 58.7082 17.579 57.5736 17.579 56.1739L41.6664 37.6709C42.1216 37.3211 42.7549 37.3211 43.2102 37.6709Z" fill="#8399FE"/>
<path d="M51.1165 43.7442L44.7544 48.6314C44.0929 49.1395 43.2706 49.4183 42.4381 49.4183C41.6056 49.4183 40.7832 49.1395 40.1218 48.6314L33.7596 43.7442L41.6664 37.6709C42.1213 37.3211 42.7548 37.3211 43.2097 37.6709L51.1165 43.7442Z" fill="#6583FE"/>
<path d="M41.6669 46.622L17.5795 28.1188C17.5795 26.7192 18.7141 25.5846 20.1138 25.5846H64.7638C66.1634 25.5846 67.298 26.7192 67.298 28.1188L43.2108 46.622C42.7555 46.9716 42.1222 46.9716 41.6669 46.622Z" fill="#B7C5FF"/>
<path d="M57.0035 55.3362H52.9317C52.5819 55.3362 52.2982 55.0525 52.2982 54.7027V51.8955C52.2982 51.5457 52.5819 51.262 52.9317 51.262H57.0035C57.3533 51.262 57.6371 51.5457 57.6371 51.8955V54.7027C57.6371 55.0527 57.3533 55.3362 57.0035 55.3362Z" fill="#02FFB3"/>
<path d="M49.5176 52.7534H45.9908C45.6408 52.7534 45.3572 52.4697 45.3572 52.1199C45.3572 51.77 45.6408 51.4863 45.9908 51.4863H49.5176C49.8675 51.4863 50.1511 51.77 50.1511 52.1199C50.1511 52.4697 49.8675 52.7534 49.5176 52.7534Z" fill="white"/>
<path d="M49.5176 55.3362H37.121C36.7711 55.3362 36.4875 55.0525 36.4875 54.7027C36.4875 54.3528 36.7711 54.0691 37.121 54.0691H49.5176C49.8676 54.0691 50.1512 54.3528 50.1512 54.7027C50.1512 55.0525 49.8676 55.3362 49.5176 55.3362Z" fill="white"/>
<path d="M61.3601 37.8482C66.3649 37.8482 70.4221 33.791 70.4221 28.7862C70.4221 23.7813 66.3649 19.7241 61.3601 19.7241C56.3552 19.7241 52.298 23.7813 52.298 28.7862C52.298 33.791 56.3552 37.8482 61.3601 37.8482Z" fill="#B7C5FF"/>
<path d="M61.3599 38.4818C66.706 38.4818 71.0555 34.1324 71.0555 28.7862C71.0555 23.44 66.7062 19.0906 61.3599 19.0906C56.0137 19.0906 51.6643 23.44 51.6643 28.7862C51.6643 31.8962 53.1379 34.6669 55.4217 36.4422L42.824 46.1194C42.5971 46.2941 42.2796 46.2942 42.0521 46.1194L18.2351 27.8241C18.3772 26.9155 19.1653 26.2181 20.113 26.2181H49.1764C49.5263 26.2181 49.8099 25.9344 49.8099 25.5845C49.8099 25.2347 49.5263 24.951 49.1764 24.951H20.1131C18.3664 24.951 16.9453 26.3721 16.9453 28.1188V56.174C16.9453 57.9207 18.3664 59.3418 20.1131 59.3418H64.7632C66.5099 59.3418 67.931 57.9207 67.931 56.174V39.4303C67.931 39.0805 67.6474 38.7968 67.2974 38.7968C66.9474 38.7968 66.6638 39.0805 66.6638 39.4303V54.8884L50.0763 42.1464L56.531 37.1882C57.9539 38.0093 59.6023 38.4818 61.3599 38.4818ZM34.7999 42.1464L18.2125 54.8884V29.4044L34.7999 42.1464ZM66.6387 56.4671C66.4971 57.3761 65.7112 58.0747 64.763 58.0747H20.1131C19.165 58.0747 18.3791 57.3761 18.2374 56.4671L35.8401 42.9453L41.2803 47.1243C41.6212 47.3861 42.0297 47.5171 42.4382 47.5171C42.8467 47.5171 43.2551 47.3862 43.5961 47.1243L49.0363 42.9452L66.6387 56.4671ZM52.9315 28.7862C52.9315 24.1388 56.7124 20.3577 61.3599 20.3577C66.0075 20.3577 69.7884 24.1386 69.7884 28.7862C69.7884 33.4337 66.0075 37.2147 61.3599 37.2147C56.7124 37.2147 52.9315 33.4336 52.9315 28.7862Z" fill="#4941CB"/>
<path d="M57.4047 25.6957L58.6979 28.786L57.4047 31.8764C57.1851 32.4012 57.7149 32.9271 58.238 32.7036L66.0458 29.3687C66.5587 29.1496 66.5587 28.4225 66.0458 28.2034L58.238 24.8685C57.7149 24.645 57.1851 25.1708 57.4047 25.6957Z" fill="white"/>
<path d="M61.6477 29.3777L57.7545 31.0415L58.6975 28.786L57.7534 26.5305L61.6477 28.1942C62.1334 28.402 62.1334 29.1712 61.6477 29.3777Z" fill="#4941CB"/>
<path d="M51.9198 19.6728C51.4492 19.6728 50.9787 19.4938 50.6206 19.1356C49.9042 18.4191 49.9042 17.2535 50.6206 16.5372C51.3367 15.8211 52.5026 15.8208 53.2189 16.5372C53.9353 17.2537 53.9353 18.4193 53.2189 19.1356C52.8608 19.4938 52.3903 19.6728 51.9198 19.6728ZM51.9198 17.2665C51.7738 17.2665 51.6277 17.322 51.5165 17.4332C51.2942 17.6555 51.2942 18.0172 51.5165 18.2396C51.739 18.4618 52.1004 18.462 52.3229 18.2396C52.5451 18.0173 52.5451 17.6556 52.3229 17.4332C52.2118 17.3221 52.0657 17.2665 51.9198 17.2665Z" fill="#00ECA2"/>
<path d="M37.6912 67.5249C37.2207 67.5249 36.7501 67.3457 36.392 66.9876C35.6756 66.2712 35.6756 65.1056 36.392 64.3893C37.1082 63.673 38.2742 63.673 38.9903 64.3893C39.7068 65.1057 39.7068 66.2713 38.9903 66.9876C38.6323 67.3458 38.1616 67.5249 37.6912 67.5249ZM37.6912 65.1185C37.5452 65.1185 37.3991 65.174 37.2878 65.2853C37.0656 65.5075 37.0656 65.8693 37.2878 66.0916C37.5104 66.314 37.8719 66.314 38.0944 66.0916C38.3166 65.8694 38.3166 65.5076 38.0944 65.2853C37.9832 65.1741 37.8371 65.1185 37.6912 65.1185Z" fill="#00ECA2"/>
<path d="M47.352 21.3045C47.1899 21.3045 47.0276 21.2427 46.9041 21.119L46.1482 20.3633L45.3924 21.119C45.1452 21.3663 44.7438 21.3663 44.4965 21.119C44.2491 20.8715 44.2491 20.4703 44.4965 20.223L45.7003 19.0192C45.9475 18.7719 46.3489 18.7719 46.5962 19.0192L47.7999 20.223C48.0474 20.4705 48.0474 20.8716 47.7999 21.119C47.6764 21.2425 47.5142 21.3045 47.352 21.3045Z" fill="#FF7EB8"/>
<path d="M65.7211 65.1182C65.559 65.1182 65.3967 65.0564 65.2732 64.9327L64.5173 64.177L63.7615 64.9327C63.5143 65.18 63.1129 65.18 62.8657 64.9327C62.6182 64.6852 62.6182 64.2841 62.8657 64.0367L64.0694 62.833C64.3166 62.5856 64.7181 62.5856 64.9653 62.833L66.169 64.0367C66.4165 64.2842 66.4165 64.6854 66.169 64.9327C66.0455 65.0563 65.8832 65.1182 65.7211 65.1182Z" fill="#FF7EB8"/>
<path d="M32.6665 65.72C32.5044 65.72 32.3421 65.6582 32.2186 65.5345L31.4627 64.7788L30.7069 65.5345C30.4597 65.7819 30.0583 65.7819 29.8111 65.5345C29.5636 65.287 29.5636 64.8859 29.8111 64.6385L31.0148 63.4348C31.262 63.1874 31.6635 63.1874 31.9107 63.4348L33.1144 64.6385C33.3619 64.886 33.3619 65.2872 33.1144 65.5345C32.9908 65.6581 32.8286 65.72 32.6665 65.72Z" fill="#6583FE"/>
<path d="M31.0683 22.1366C32.2106 22.1366 33.1366 21.2106 33.1366 20.0683C33.1366 18.926 32.2106 18 31.0683 18C29.926 18 29 18.926 29 20.0683C29 21.2106 29.926 22.1366 31.0683 22.1366Z" fill="url(#paint0_linear)"/>
<path d="M31.0683 21.3316C31.766 21.3316 32.3316 20.766 32.3316 20.0683C32.3316 19.3706 31.766 18.8051 31.0683 18.8051C30.3706 18.8051 29.8051 19.3706 29.8051 20.0683C29.8051 20.766 30.3706 21.3316 31.0683 21.3316Z" fill="#0D47A1"/>
<path d="M13.7121 27.4242C14.6577 27.4242 15.4242 26.6577 15.4242 25.7121C15.4242 24.7665 14.6577 24 13.7121 24C12.7665 24 12 24.7665 12 25.7121C12 26.6577 12.7665 27.4242 13.7121 27.4242Z" fill="url(#paint1_linear)"/>
<path d="M14.1852 27.3704C14.8398 27.3704 15.3704 26.8398 15.3704 26.1852C15.3704 25.5306 14.8398 25 14.1852 25C13.5306 25 13 25.5306 13 26.1852C13 26.8398 13.5306 27.3704 14.1852 27.3704Z" fill="#0D47A1"/>
<path d="M62 69.4269L60.2229 69.037L60.612 67.2597L59.4273 67L59.0375 68.7773L57.2597 68.3882L57 69.5731L58.7778 69.963L58.3887 71.741L59.5734 72L59.9633 70.2227L61.7403 70.6118L62 69.4269Z" fill="white"/>
<path d="M69 33.4562L67.9337 33.2222L68.1672 32.1558L67.4564 32L67.2225 33.0664L66.1558 32.8329L66 33.5438L67.0667 33.7778L66.8332 34.8446L67.544 35L67.778 33.9336L68.8442 34.1671L69 33.4562Z" fill="white"/>
<path d="M22 60.4562L20.9337 60.2222L21.1672 59.1558L20.4564 59L20.2225 60.0664L19.1558 59.8329L19 60.5438L20.0667 60.7778L19.8332 61.8446L20.544 62L20.778 60.9336L21.8442 61.1671L22 60.4562Z" fill="white"/>
<path d="M61 19.4562L59.9337 19.2222L60.1672 18.1558L59.4564 18L59.2225 19.0664L58.1558 18.8329L58 19.5438L59.0667 19.7778L58.8332 20.8446L59.544 21L59.778 19.9336L60.8442 20.1671L61 19.4562Z" fill="white"/>
<path d="M33 77.4562L31.9337 77.2222L32.1672 76.1558L31.4564 76L31.2225 77.0664L30.1558 76.8329L30 77.5438L31.0667 77.7778L30.8332 78.8446L31.544 79L31.778 77.9336L32.8442 78.1671L33 77.4562Z" fill="white"/>
<defs>
<linearGradient id="paint0_linear" x1="911.291" y1="973.434" x2="911.291" y2="923.203" gradientUnits="userSpaceOnUse">
<stop stop-color="#808080" stop-opacity="0.25"/>
<stop offset="0.53514" stop-color="#808080" stop-opacity="0.12"/>
<stop offset="1" stop-color="#808080" stop-opacity="0.1"/>
</linearGradient>
<linearGradient id="paint1_linear" x1="2087.25" y1="498.278" x2="2087.25" y2="463.86" gradientUnits="userSpaceOnUse">
<stop stop-color="#808080" stop-opacity="0.25"/>
<stop offset="0.53514" stop-color="#808080" stop-opacity="0.12"/>
<stop offset="1" stop-color="#808080" stop-opacity="0.1"/>
</linearGradient>
</defs>
</svg>
