<svg width="84" height="84" viewBox="0 0 84 84" fill="none" xmlns="http://www.w3.org/2000/svg">
<circle cx="42" cy="42" r="42" fill="#2E3338"/>
<path d="M54.1923 14.3846C54.8508 14.3846 55.3846 13.8508 55.3846 13.1923C55.3846 12.5338 54.8508 12 54.1923 12C53.5338 12 53 12.5338 53 13.1923C53 13.8508 53.5338 14.3846 54.1923 14.3846Z" fill="#E0E4E8"/>
<path d="M49 13C50.1046 13 51 12.1046 51 11C51 9.89543 50.1046 9 49 9C47.8954 9 47 9.89543 47 11C47 12.1046 47.8954 13 49 13Z" fill="white"/>
<path d="M37.6184 5.37821H37.1094C37.0057 5.37821 36.7493 4.97129 36.7493 4.85453V4.38158C36.7493 4.01251 36.3318 3 35.9627 3C35.5937 3 35.1762 4.01251 35.1762 4.38158V4.85453C35.1762 5.02093 35.0477 5.37821 34.8906 5.37821H34.3816C34.0125 5.37821 33 5.66461 33 6.03369C33 6.40277 34.0125 6.68917 34.3816 6.68917H34.9887C35.1809 6.68917 35.1762 6.88692 35.1762 6.9876V7.61843C35.1762 7.98752 35.5937 9 35.9627 9C36.3318 9 36.7493 7.98752 36.7493 7.61843V6.9876C36.7493 6.90402 36.9181 6.68917 37.0113 6.68917H37.6184C37.9875 6.68917 39 6.40278 39 6.03369C39 5.6646 37.9875 5.37821 37.6184 5.37821Z" fill="white"/>
<path d="M74.4171 32.3811L74.1082 32.7266C74.0453 32.797 73.6135 32.724 73.5342 32.6531L73.2133 32.3661C72.9628 32.1421 72.0222 31.8109 71.7982 32.0613C71.5742 32.3118 72.008 33.2097 72.2584 33.4337L72.5794 33.7207C72.6923 33.8217 72.8568 34.1258 72.7615 34.2324L72.4525 34.5779C72.2285 34.8283 71.8084 35.6893 72.0588 35.9133C72.3093 36.1373 73.1182 35.624 73.3422 35.3735L73.7107 34.9615C73.8274 34.8311 73.9587 34.9543 74.027 35.0154L74.4552 35.3983C74.7056 35.6223 75.6462 35.9535 75.8702 35.703C76.0942 35.4525 75.6605 34.5547 75.41 34.3307L74.9819 33.9478C74.9251 33.8971 74.8818 33.6521 74.9384 33.5888L75.3068 33.1768C75.5308 32.9264 75.951 32.0654 75.7005 31.8414C75.45 31.6173 74.6411 32.1307 74.4171 32.3811Z" fill="white"/>
<path d="M68.2343 28.7435L68.0081 28.9964C67.962 29.048 67.6459 28.9945 67.5878 28.9426L67.3528 28.7324C67.1694 28.5684 66.4807 28.3259 66.3167 28.5093C66.1527 28.6927 66.4703 29.3502 66.6537 29.5142L66.8887 29.7244C66.9714 29.7983 67.0918 30.0209 67.022 30.099L66.7958 30.352C66.6318 30.5354 66.3241 31.1658 66.5075 31.3298C66.6909 31.4938 67.2832 31.118 67.4472 30.9346L67.717 30.6329C67.8025 30.5373 67.8986 30.6276 67.9487 30.6723L68.2622 30.9527C68.4456 31.1167 69.1342 31.3592 69.2983 31.1758C69.4623 30.9924 69.1447 30.335 68.9613 30.171L68.6478 29.8906C68.6063 29.8535 68.5745 29.6741 68.616 29.6278L68.8858 29.3261C69.0498 29.1427 69.3574 28.5123 69.174 28.3482C68.9906 28.1842 68.3983 28.5601 68.2343 28.7435Z" fill="white"/>
<path d="M12.2343 30.7435L12.0081 30.9964C11.962 31.048 11.6459 30.9945 11.5878 30.9426L11.3528 30.7324C11.1694 30.5684 10.4807 30.3259 10.3167 30.5093C10.1527 30.6927 10.4703 31.3502 10.6537 31.5142L10.8887 31.7244C10.9714 31.7983 11.0918 32.0209 11.022 32.099L10.7958 32.352C10.6318 32.5354 10.3241 33.1658 10.5075 33.3298C10.6909 33.4938 11.2832 33.118 11.4472 32.9346L11.717 32.6329C11.8025 32.5373 11.8986 32.6276 11.9487 32.6723L12.2622 32.9527C12.4456 33.1167 13.1342 33.3592 13.2983 33.1758C13.4623 32.9924 13.1447 32.335 12.9613 32.171L12.6478 31.8906C12.6063 31.8535 12.5745 31.6741 12.616 31.6278L12.8858 31.3261C13.0498 31.1427 13.3574 30.5123 13.174 30.3482C12.9906 30.1842 12.3983 30.5601 12.2343 30.7435Z" fill="white"/>
<path d="M19.2343 27.7435L19.0081 27.9964C18.962 28.048 18.6459 27.9945 18.5878 27.9426L18.3528 27.7324C18.1694 27.5684 17.4807 27.3259 17.3167 27.5093C17.1527 27.6927 17.4703 28.3502 17.6537 28.5142L17.8887 28.7244C17.9714 28.7983 18.0918 29.0209 18.022 29.099L17.7958 29.352C17.6318 29.5354 17.3241 30.1658 17.5075 30.3298C17.6909 30.4938 18.2832 30.118 18.4472 29.9346L18.717 29.6329C18.8025 29.5373 18.8986 29.6276 18.9487 29.6723L19.2622 29.9527C19.4456 30.1167 20.1342 30.3592 20.2983 30.1758C20.4623 29.9924 20.1447 29.335 19.9613 29.171L19.6478 28.8906C19.6063 28.8535 19.5745 28.6741 19.616 28.6278L19.8858 28.3261C20.0498 28.1427 20.3574 27.5123 20.174 27.3482C19.9906 27.1842 19.3983 27.5601 19.2343 27.7435Z" fill="white"/>
<path d="M17.5732 18.5433L17.1135 19.0574C17.0198 19.1621 16.3773 19.0535 16.2594 18.9481L15.7817 18.5209C15.409 18.1876 14.0093 17.6947 13.676 18.0674C13.3426 18.4402 13.9881 19.7763 14.3608 20.1097L14.8385 20.5368C15.0065 20.6871 15.2513 21.1396 15.1094 21.2982L14.6497 21.8123C14.3163 22.1851 13.6911 23.4663 14.0638 23.7996C14.4365 24.133 15.6403 23.3691 15.9736 22.9964L16.522 22.3833C16.6956 22.1891 16.891 22.3725 16.9927 22.4635L17.6298 23.0332C18.0026 23.3666 19.4022 23.8594 19.7355 23.4867C20.0689 23.114 19.4234 21.7778 19.0507 21.4445L18.4136 20.8747C18.3292 20.7992 18.2647 20.4347 18.3489 20.3405L18.8972 19.7274C19.2305 19.3547 19.8558 18.0735 19.4831 17.7401C19.1103 17.4067 17.9066 18.1706 17.5732 18.5433Z" fill="white"/>
<path d="M29.1821 54.5219C24.1242 50.6732 20.8591 44.5896 20.8591 37.7435C20.8591 26.1067 30.2927 16.6731 41.9296 16.6731C53.5665 16.6731 63 26.1067 63 37.7435C63 44.5793 59.7448 50.6547 54.7 54.5043L41.9813 55.5485L29.1821 54.5219Z" fill="#6C63FF"/>
<path d="M58.3014 51.0091C57.2442 52.3116 56.0349 53.4858 54.7002 54.5046L41.9813 55.5483L29.1817 54.5222C24.1238 50.6736 20.8591 44.5896 20.8591 37.7435C20.8591 31.1345 23.9022 25.2358 28.664 21.3717C25.7266 24.9935 23.9653 29.6094 23.9653 34.6373C23.9653 40.9714 26.7599 46.6531 31.1839 50.5156C31.851 51.098 32.6894 51.4482 33.5722 51.5189L34.2885 51.5764C41.4761 52.1526 48.6985 52.1457 55.885 51.5561L57.8064 51.3984C57.9731 51.271 58.1378 51.1416 58.3014 51.0091Z" fill="#635CD8"/>
<path d="M29.66 54.4653H54.3026C55.4463 54.4653 56.3734 55.3924 56.3734 56.5361V61.299L42.1432 62.3344L27.5892 61.299V56.5361C27.5892 55.3924 28.5163 54.4653 29.66 54.4653Z" fill="#4F6071"/>
<path d="M26.554 61.299H57.409C58.5527 61.299 59.4798 62.2261 59.4798 63.3698V67.0972C59.4798 67.6691 59.0162 68.1326 58.4444 68.1326H25.5186C24.9467 68.1326 24.4832 67.6691 24.4832 67.0972V63.3698C24.4832 62.2261 25.4103 61.299 26.554 61.299Z" fill="#4F6071"/>
<path d="M26.554 67.0972V63.8875C26.554 63.6016 26.7858 63.3698 27.0717 63.3698H59.4798C59.4798 62.2256 58.5531 61.299 57.409 61.299H28.6248H26.554C25.4103 61.299 24.4832 62.2261 24.4832 63.3698V67.0972C24.4832 67.6691 24.9467 68.1326 25.5186 68.1326H27.5894C27.0178 68.1326 26.554 67.6687 26.554 67.0972Z" fill="#414952"/>
<path d="M47.5315 23.6742L48.916 25.9965C48.9904 26.1214 49.1139 26.2093 49.2564 26.2385L51.9047 26.7828C52.2934 26.8628 52.4514 27.3323 52.1899 27.6309L50.409 29.6652C50.3133 29.7746 50.2679 29.9193 50.2841 30.0638L50.5847 32.7507C50.6288 33.1451 50.231 33.4405 49.8663 33.2841L47.3812 32.2191C47.2475 32.1618 47.0959 32.1634 46.9635 32.2235L44.501 33.3397C44.1396 33.5036 43.7358 33.2165 43.7717 32.8213L44.0167 30.1287C44.0298 29.9839 43.9815 29.8403 43.8835 29.7328L42.0609 27.7358C41.7933 27.4427 41.9416 26.9699 42.3285 26.882L44.965 26.283C45.1068 26.2508 45.2285 26.1604 45.3003 26.034L46.6364 23.6836C46.8328 23.3385 47.3283 23.3334 47.5315 23.6742Z" fill="#F8E837"/>
<path d="M45.6198 29.5876L45.3361 32.962L44.5016 33.3399C44.1402 33.5035 43.7364 33.2167 43.7716 32.8212L44.017 30.1292C44.0305 29.9842 43.9818 29.8403 43.8834 29.7326L42.0611 27.7363C41.794 27.4423 41.942 26.9701 42.3293 26.8821L43.2239 26.6792L45.4821 29.1766C45.5836 29.2884 45.6333 29.4375 45.6198 29.5876Z" fill="#F3D332"/>
<path d="M38.3826 33.8787L39.3368 35.4794C39.3882 35.5655 39.4733 35.6261 39.5714 35.6462L41.3969 36.0214C41.6648 36.0765 41.7736 36.4001 41.5935 36.606L40.366 38.0081C40.3 38.0835 40.2687 38.1832 40.2799 38.2828L40.4872 40.1347C40.5176 40.4066 40.2434 40.6102 39.9919 40.5024L38.2791 39.7683C38.1869 39.7288 38.0824 39.7299 37.9911 39.7713L36.2939 40.5407C36.0448 40.6537 35.7664 40.4558 35.7912 40.1834L35.9601 38.3275C35.9692 38.2277 35.9358 38.1286 35.8682 38.0546L34.612 36.6781C34.4276 36.4761 34.5298 36.1502 34.7965 36.0896L36.6137 35.6767C36.7115 35.6545 36.7953 35.5922 36.8449 35.505L37.7658 33.8849C37.901 33.6473 38.2425 33.6438 38.3826 33.8787Z" fill="#F8E837"/>
<path d="M37.1667 37.8554L36.9855 40.2275L36.2938 40.5413C36.0443 40.6541 35.7668 40.4564 35.7916 40.183L35.9604 38.3276C35.9687 38.2282 35.9356 38.1288 35.8683 38.0542L34.6123 36.6782C34.428 36.4763 34.5295 36.1501 34.7966 36.0901L35.5794 35.912L37.0662 37.5583C37.1397 37.639 37.176 37.7467 37.1667 37.8554Z" fill="#F3D332"/>
<path d="M46.8642 37.1741L47.8184 38.7749C47.8697 38.8609 47.9549 38.9215 48.053 38.9417L49.8784 39.3168C50.1464 39.3719 50.2552 39.6955 50.075 39.9014L48.8476 41.3035C48.7815 41.3789 48.7503 41.4786 48.7614 41.5782L48.9687 43.4301C48.9992 43.702 48.725 43.9056 48.4735 43.7978L46.7606 43.0637C46.6685 43.0242 46.564 43.0253 46.4727 43.0667L44.7754 43.8361C44.5263 43.9491 44.248 43.7512 44.2728 43.4788L44.4416 41.6229C44.4507 41.5231 44.4174 41.424 44.3498 41.35L43.0935 39.9735C42.9091 39.7715 43.0113 39.4456 43.278 39.385L45.0953 38.9721C45.193 38.9499 45.2769 38.8876 45.3265 38.8004L46.2474 37.1803C46.3826 36.9427 46.7241 36.9392 46.8642 37.1741Z" fill="#F8E837"/>
<path d="M45.6482 41.1509L45.467 43.523L44.7754 43.8367C44.5259 43.9495 44.2484 43.7518 44.2732 43.4784L44.442 41.623C44.4503 41.5236 44.4171 41.4242 44.3498 41.3496L43.0939 39.9736C42.9096 39.7717 43.0111 39.4455 43.2782 39.3855L44.061 39.2074L45.5478 40.8537C45.6213 40.9345 45.6575 41.0421 45.6482 41.1509Z" fill="#F3D332"/>
<path d="M31.7308 54.4653C30.5867 54.4653 29.66 55.392 29.66 56.5361V61.299H27.5892V56.5361C27.5892 55.392 28.5159 54.4653 29.66 54.4653H31.7308Z" fill="#414952"/>
</svg>
