<svg width="174" height="174" viewBox="0 0 174 174" fill="none" xmlns="http://www.w3.org/2000/svg">
<path d="M87 174C135.049 174 174 135.049 174 87C174 38.9512 135.049 0 87 0C38.9512 0 0 38.9512 0 87C0 135.049 38.9512 174 87 174Z" fill="#E6E6E6"/>
<path d="M78.6759 37.0557C84.163 37.0557 88.6111 32.6075 88.6111 27.1205C88.6111 21.6334 84.163 17.1853 78.6759 17.1853C73.1889 17.1853 68.7407 21.6334 68.7407 27.1205C68.7407 32.6075 73.1889 37.0557 78.6759 37.0557Z" fill="#CBCBCB"/>
<path d="M95.5926 136.945C101.228 136.945 105.796 132.376 105.796 126.741C105.796 121.105 101.228 116.537 95.5926 116.537C89.9573 116.537 85.3889 121.105 85.3889 126.741C85.3889 132.376 89.9573 136.945 95.5926 136.945Z" fill="#CBCBCB"/>
<path d="M133.991 78.4075C137.995 78.4075 141.241 75.1615 141.241 71.1575C141.241 67.1534 137.995 63.9075 133.991 63.9075C129.987 63.9075 126.741 67.1534 126.741 71.1575C126.741 75.1615 129.987 78.4075 133.991 78.4075Z" fill="#CBCBCB"/>
<path d="M52.8982 116.537C65.5036 116.537 75.7222 106.318 75.7222 93.713C75.7222 81.1076 65.5036 70.8889 52.8982 70.8889C40.2928 70.8889 30.0741 81.1076 30.0741 93.713C30.0741 106.318 40.2928 116.537 52.8982 116.537Z" fill="#CBCBCB"/>
</svg>
