<svg width="1419" height="305" viewBox="0 0 1419 305" fill="none" xmlns="http://www.w3.org/2000/svg">
<path d="M287 21.2516L280.958 19.9259L282.281 13.883L278.253 13L276.927 19.043L270.883 17.7198L270 21.7484L276.045 23.0741L274.722 29.1195L278.75 30L280.075 23.957L286.117 25.2802L287 21.2516Z" fill="#E6E6E6"/>
<path d="M1168.5 117C1173.19 117 1177 112.971 1177 108C1177 103.029 1173.19 99 1168.5 99C1163.81 99 1160 103.029 1160 108C1160 112.971 1163.81 117 1168.5 117Z" fill="#6C63FF"/>
<path d="M17 279.253L10.957 277.927L12.2802 271.883L8.2516 271L6.92593 277.045L0.882976 275.722L0 279.75L6.04295 281.075L4.71977 287.117L8.7484 288L10.0741 281.955L16.117 283.281L17 279.253Z" fill="#E6E6E6"/>
<path d="M191 241.253L184.957 239.927L186.28 233.883L182.252 233L180.926 239.045L174.883 237.722L174 241.75L180.043 243.075L178.72 249.117L182.748 250L184.074 243.955L190.117 245.281L191 241.253Z" fill="#E6E6E6"/>
<path d="M1375 296.252L1368.96 294.926L1370.28 288.883L1366.25 288L1364.93 294.043L1358.88 292.72L1358 296.748L1364.04 298.074L1362.72 304.119L1366.75 305L1368.08 298.957L1374.12 300.28L1375 296.252Z" fill="#E6E6E6"/>
<path opacity="0.8" d="M1211.7 247.054L1292.21 152.877L1372.73 58.6999L1418.19 5.53552C1420.7 2.59397 1416.82 -1.99507 1414.3 0.94636L1333.79 95.1232L1253.27 189.3L1207.81 242.465C1205.3 245.406 1209.18 249.995 1211.7 247.054Z" fill="url(#paint0_linear)"/>
<path d="M87 204C135.049 204 174 165.049 174 117C174 68.9512 135.049 30 87 30C38.9512 30 0 68.9512 0 117C0 165.049 38.9512 204 87 204Z" fill="#E6E6E6"/>
<path d="M78.6759 67.0557C84.163 67.0557 88.6111 62.6075 88.6111 57.1205C88.6111 51.6334 84.163 47.1853 78.6759 47.1853C73.1889 47.1853 68.7407 51.6334 68.7407 57.1205C68.7407 62.6075 73.1889 67.0557 78.6759 67.0557Z" fill="#CBCBCB"/>
<path d="M95.5926 166.945C101.228 166.945 105.796 162.376 105.796 156.741C105.796 151.105 101.228 146.537 95.5926 146.537C89.9573 146.537 85.3889 151.105 85.3889 156.741C85.3889 162.376 89.9573 166.945 95.5926 166.945Z" fill="#CBCBCB"/>
<path d="M133.991 108.407C137.995 108.407 141.241 105.162 141.241 101.157C141.241 97.1534 137.995 93.9075 133.991 93.9075C129.987 93.9075 126.741 97.1534 126.741 101.157C126.741 105.162 129.987 108.407 133.991 108.407Z" fill="#CBCBCB"/>
<path d="M52.8982 146.537C65.5036 146.537 75.7222 136.318 75.7222 123.713C75.7222 111.108 65.5036 100.889 52.8982 100.889C40.2928 100.889 30.0741 111.108 30.0741 123.713C30.0741 136.318 40.2928 146.537 52.8982 146.537Z" fill="#CBCBCB"/>
<defs>
<linearGradient id="paint0_linear" x1="123940" y1="60264.6" x2="142344" y2="60264.6" gradientUnits="userSpaceOnUse">
<stop stop-color="white"/>
<stop offset="1" stop-color="white" stop-opacity="0.3"/>
</linearGradient>
</defs>
</svg>
