<svg width="156" height="156" viewBox="0 0 156 156" fill="none" xmlns="http://www.w3.org/2000/svg">
<g filter="url(#filter0_d)">
<path d="M151.962 73.5661C151.962 79.9185 145.96 85.3951 144.396 91.257C142.772 97.3174 145.19 105.048 142.06 110.361C138.931 115.674 131.013 117.507 126.646 121.875C122.279 126.242 120.516 134.171 115.133 137.288C109.749 140.406 102.089 137.942 96.0287 139.624C90.1901 141.189 84.6902 147.191 78.3378 147.191C71.9854 147.191 66.5088 141.189 60.6469 139.624C54.5865 138.001 46.8562 140.418 41.5431 137.288C36.23 134.159 34.3967 126.242 30.0294 121.875C25.6621 117.507 17.7333 115.744 14.6155 110.361C11.4977 104.978 14.02 97.3174 12.3969 91.257C10.8321 85.3951 4.83008 79.9185 4.83008 73.5661C4.83008 67.2137 10.8321 61.7371 12.3969 55.8752C14.02 49.8148 11.6028 42.0378 14.6739 36.7714C17.745 31.505 25.7205 29.625 30.0878 25.2577C34.455 20.8904 36.2183 12.9616 41.6015 9.84385C46.9846 6.72604 54.6448 9.18992 60.7053 7.5668C66.5672 6.00206 72.0438 0 78.3962 0C84.7486 0 90.2252 6.00206 96.0871 7.5668C102.148 9.18992 109.925 6.77275 115.191 9.84385C120.457 12.9149 122.337 20.8904 126.705 25.2577C131.072 29.625 139.001 31.3882 142.118 36.7714C145.236 42.1545 142.772 49.8148 144.454 55.8752C145.96 61.7371 151.962 67.2137 151.962 73.5661Z" fill="#6AB891"/>
<path d="M144.035 93.0786C143.195 98.8004 144.888 105.561 142.12 110.361C139.003 115.744 131.074 117.507 126.706 121.874C122.339 126.242 120.576 134.171 115.193 137.288C109.81 140.406 102.149 137.942 96.089 139.624C90.2504 141.189 84.7504 147.191 78.3981 147.191C72.0457 147.191 66.5691 141.189 60.7072 139.624C54.6467 138.001 46.9164 140.418 41.6033 137.288C36.2902 134.159 34.4569 126.242 30.0896 121.874C25.7224 117.507 17.7936 115.744 14.6758 110.361C11.9083 105.561 13.6015 98.8004 12.7607 93.0786C18.2037 105.991 27.3341 117.011 39.0093 124.759C50.6844 132.508 64.3856 136.641 78.3981 136.641C92.4105 136.641 106.112 132.508 117.787 124.759C129.462 117.011 138.592 105.991 144.035 93.0786Z" fill="#4DA67F"/>
<path d="M78.3995 127.281C108.065 127.281 132.114 103.232 132.114 73.5664C132.114 43.9005 108.065 19.8515 78.3995 19.8515C48.7336 19.8515 24.6846 43.9005 24.6846 73.5664C24.6846 103.232 48.7336 127.281 78.3995 127.281Z" fill="#F3F4F5"/>
<path d="M57.4932 62.7377H72.4298V63.9081H58.8624V72.7168H71.6208V73.8872H58.8624V83.5583H72.5854V84.7287H57.4932V62.7377ZM73.7679 62.7377H75.3549L82.3876 72.4088L89.5759 62.7377L99.3531 50.4532L83.29 73.4252L91.5674 84.7287H89.9182L82.3876 74.4416L74.8259 84.7287H73.2078L81.5474 73.4252L73.7679 62.7377ZM92.1587 63.9081V62.7377H109.18V63.9081H101.339V84.7287H99.9693V63.9081H92.1587Z" fill="black"/>
<path d="M38.8066 62.7377H40.5181L64.1186 97.5538L54.3657 84.7287L40.2381 64.4009L40.1758 84.7287H38.8066V62.7377Z" fill="black"/>
<path d="M109.042 83.2051C109.325 83.2051 109.532 82.9914 109.532 82.7153C109.532 82.4392 109.325 82.2255 109.042 82.2255C108.763 82.2255 108.553 82.4392 108.553 82.7153C108.553 82.9914 108.763 83.2051 109.042 83.2051ZM110.388 81.9165C110.388 82.7317 110.984 83.2643 111.853 83.2643C112.779 83.2643 113.338 82.7153 113.338 81.762V78.4056H112.592V81.7587C112.592 82.2879 112.323 82.5706 111.846 82.5706C111.42 82.5706 111.13 82.3077 111.12 81.9165H110.388ZM114.314 81.8737C114.367 82.7219 115.083 83.2643 116.149 83.2643C117.288 83.2643 118 82.6956 118 81.7883C118 81.0749 117.594 80.6804 116.608 80.4536L116.079 80.3254C115.453 80.1807 115.2 79.9868 115.2 79.6482C115.2 79.2208 115.593 78.9414 116.182 78.9414C116.742 78.9414 117.128 79.2143 117.198 79.6515H117.924C117.881 78.8527 117.168 78.2905 116.192 78.2905C115.143 78.2905 114.444 78.8527 114.444 79.6975C114.444 80.3944 114.84 80.8086 115.709 81.0092L116.329 81.1571C116.965 81.305 117.245 81.522 117.245 81.8836C117.245 82.3044 116.805 82.6101 116.206 82.6101C115.563 82.6101 115.117 82.3241 115.053 81.8737H114.314Z" fill="black"/>
<path d="M78.4 19.8515C85.7489 19.8518 93.0195 21.3601 99.762 24.283C106.505 27.2059 112.576 31.4813 117.6 36.8446C122.624 42.2079 126.494 48.545 128.97 55.4639C131.447 62.3829 132.477 69.7364 131.998 77.0696C131.1 63.4659 125.062 50.7129 115.109 41.3957C105.157 32.0786 92.0333 26.8946 78.4 26.8946C64.7667 26.8946 51.6435 32.0786 41.6907 41.3957C31.7379 50.7129 25.7003 63.4659 24.8019 77.0696C24.3226 69.7364 25.3531 62.3829 27.8298 55.4639C30.3064 48.545 34.1764 42.2079 39.2004 36.8446C44.2244 31.4813 50.2955 27.2059 57.038 24.283C63.7806 21.3601 71.0512 19.8518 78.4 19.8515Z" fill="#DDE1E8"/>
</g>
<defs>
<filter id="filter0_d" x="0.830078" y="0" width="155.132" height="155.191" filterUnits="userSpaceOnUse" color-interpolation-filters="sRGB">
<feFlood flood-opacity="0" result="BackgroundImageFix"/>
<feColorMatrix in="SourceAlpha" type="matrix" values="0 0 0 0 0 0 0 0 0 0 0 0 0 0 0 0 0 0 127 0"/>
<feOffset dy="4"/>
<feGaussianBlur stdDeviation="2"/>
<feColorMatrix type="matrix" values="0 0 0 0 0 0 0 0 0 0 0 0 0 0 0 0 0 0 0.25 0"/>
<feBlend mode="normal" in2="BackgroundImageFix" result="effect1_dropShadow"/>
<feBlend mode="normal" in="SourceGraphic" in2="effect1_dropShadow" result="shape"/>
</filter>
</defs>
</svg>
