<svg width="194" height="171" viewBox="0 0 194 171" fill="none" xmlns="http://www.w3.org/2000/svg">
<path d="M94.5234 170.015C141.599 170.015 179.761 131.956 179.761 85.0077C179.761 38.0593 141.599 0 94.5234 0C47.448 0 9.28577 38.0593 9.28577 85.0077C9.28577 131.956 47.448 170.015 94.5234 170.015Z" fill="url(#paint0_linear)"/>
<path d="M94.5234 167.93C140.444 167.93 177.67 130.804 177.67 85.0076C177.67 39.2108 140.444 2.08521 94.5234 2.08521C48.6028 2.08521 11.3768 39.2108 11.3768 85.0076C11.3768 130.804 48.6028 167.93 94.5234 167.93Z" fill="#6C63FF"/>
<path opacity="0.05" d="M67.6383 47.3798C73.3426 47.3798 77.9668 42.7681 77.9668 37.0792C77.9668 31.3903 73.3426 26.7786 67.6383 26.7786C61.934 26.7786 57.3098 31.3903 57.3098 37.0792C57.3098 42.7681 61.934 47.3798 67.6383 47.3798Z" fill="black"/>
<path opacity="0.05" d="M99.2294 157.687C104.934 157.687 109.558 153.075 109.558 147.387C109.558 141.698 104.934 137.086 99.2294 137.086C93.5252 137.086 88.9009 141.698 88.9009 147.387C88.9009 153.075 93.5252 157.687 99.2294 157.687Z" fill="black"/>
<path opacity="0.05" d="M109.558 94.2787C121.221 94.2787 130.676 84.8494 130.676 73.2178C130.676 61.5862 121.221 52.157 109.558 52.157C97.8948 52.157 88.4401 61.5862 88.4401 73.2178C88.4401 84.8494 97.8948 94.2787 109.558 94.2787Z" fill="black"/>
<path d="M127.924 109.688C117.464 109.688 106.329 109.189 94.9474 108.185C69.6476 105.958 46.0648 101.512 28.5469 95.6681C10.9027 89.7772 1.47483 83.122 2.02259 76.929C2.29911 73.7931 5.06952 70.9934 10.2522 68.6086L10.5155 69.1996C5.55935 71.4793 2.91798 74.0978 2.66253 76.9868C2.40708 79.8758 4.59813 82.9854 9.18038 86.1318C13.6836 89.223 20.2647 92.2223 28.7445 95.0614C46.2176 100.892 69.745 105.325 94.9974 107.547C120.25 109.769 144.193 109.514 162.414 106.828C171.258 105.514 178.265 103.718 183.242 101.462C188.309 99.1665 191.009 96.5191 191.267 93.5959C191.562 90.2683 188.546 86.6203 182.55 83.0484L182.884 82.489C189.205 86.2526 192.241 90.0083 191.917 93.6537C191.369 99.8493 180.925 104.755 162.512 107.468C152.486 108.942 140.696 109.685 127.924 109.688Z" fill="url(#paint1_linear)"/>
<path opacity="0.9" d="M182.726 82.1108C188.707 85.6748 191.92 89.378 191.601 92.9656C190.498 105.433 147.238 111.81 94.9764 107.208C42.7151 102.607 1.24317 88.7713 2.34659 76.3039C2.60994 73.2232 5.46726 70.5259 10.3866 68.2515" stroke="#E6E6E6" stroke-width="3" stroke-miterlimit="10"/>
<path d="M105.186 121.9C97.6493 118.659 89.957 115.043 82.3251 111.148C59.7115 99.613 39.5259 86.6677 25.4869 74.6914C11.3399 62.6259 5.11432 52.9319 7.95321 47.3929C9.39109 44.588 13.0121 43.0305 18.7109 42.76L18.7426 43.4087C13.2913 43.6714 9.85721 45.1054 8.53257 47.6871C7.20794 50.2688 8.06908 53.972 11.1344 58.6023C14.1445 63.1511 19.1165 68.3986 25.9109 74.1924C39.9104 86.1424 60.0512 99.0589 82.6201 110.57C90.2414 114.457 97.9179 118.069 105.444 121.304L105.186 121.9Z" fill="url(#paint2_linear)"/>
<path d="M106.4 121.601C99.003 118.42 91.3396 114.827 83.5577 110.859C36.8477 87.0352 3.61591 58.6862 9.33055 47.5452C10.7421 44.7927 14.4 43.343 19.8144 43.0803" stroke="white" stroke-width="3" stroke-miterlimit="10"/>
<path d="M166.373 140.495C159.525 140.495 149.869 138.262 136.833 133.782L137.046 133.167C161.922 141.714 174.228 142.06 178.194 134.326C179.719 131.352 178.297 126.843 174.083 121.286L174.61 120.894C179.05 126.746 180.454 131.366 178.781 134.622C176.767 138.533 172.796 140.492 166.373 140.495Z" fill="url(#paint3_linear)"/>
<path d="M174.344 120.438C178.558 125.979 180.138 130.615 178.486 133.832C174.697 141.22 163.581 141.974 136.941 132.834" stroke="white" stroke-width="3" stroke-miterlimit="10"/>
<path opacity="0.05" d="M123.234 132.338C123.662 132.56 124.154 132.634 124.629 132.548L124.698 132.414L122.17 131.101C122.35 131.635 122.732 132.078 123.234 132.338Z" fill="black"/>
<path opacity="0.05" d="M125.288 128.398C125.718 128.62 126.062 128.978 126.265 129.417L126.196 129.551L123.668 128.238C124.208 128.081 124.789 128.138 125.288 128.398Z" fill="black"/>
<circle cx="122" cy="129" r="17" fill="white"/>
<path d="M116.5 125C117.881 125 119 123.657 119 122C119 120.343 117.881 119 116.5 119C115.119 119 114 120.343 114 122C114 123.657 115.119 125 116.5 125Z" fill="#CBCBCB"/>
<path d="M124.5 142C126.433 142 128 140.209 128 138C128 135.791 126.433 134 124.5 134C122.567 134 121 135.791 121 138C121 140.209 122.567 142 124.5 142Z" fill="#CBCBCB"/>
<path d="M131.5 128C132.328 128 133 127.105 133 126C133 124.895 132.328 124 131.5 124C130.672 124 130 124.895 130 126C130 127.105 130.672 128 131.5 128Z" fill="#CBCBCB"/>
<defs>
<linearGradient id="paint0_linear" x1="94.5234" y1="170.015" x2="94.5234" y2="0" gradientUnits="userSpaceOnUse">
<stop stop-color="#808080" stop-opacity="0.25"/>
<stop offset="0.54" stop-color="#808080" stop-opacity="0.12"/>
<stop offset="1" stop-color="#808080" stop-opacity="0.1"/>
</linearGradient>
<linearGradient id="paint1_linear" x1="109638" y1="22241.4" x2="109638" y2="15815.9" gradientUnits="userSpaceOnUse">
<stop stop-color="#808080" stop-opacity="0.25"/>
<stop offset="0.54" stop-color="#808080" stop-opacity="0.12"/>
<stop offset="1" stop-color="#808080" stop-opacity="0.1"/>
</linearGradient>
<linearGradient id="paint2_linear" x1="41529" y1="46439.6" x2="41529" y2="22593.8" gradientUnits="userSpaceOnUse">
<stop stop-color="#808080" stop-opacity="0.25"/>
<stop offset="0.54" stop-color="#808080" stop-opacity="0.12"/>
<stop offset="1" stop-color="#808080" stop-opacity="0.1"/>
</linearGradient>
<linearGradient id="paint3_linear" x1="34646" y1="12999.7" x2="34646" y2="11536.7" gradientUnits="userSpaceOnUse">
<stop stop-color="#808080" stop-opacity="0.25"/>
<stop offset="0.54" stop-color="#808080" stop-opacity="0.12"/>
<stop offset="1" stop-color="#808080" stop-opacity="0.1"/>
</linearGradient>
</defs>
</svg>
