<svg width="417" height="407" viewBox="0 0 417 407" fill="none" xmlns="http://www.w3.org/2000/svg">
<path d="M132.486 315.128C192.229 359.481 276.686 346.91 321.125 287.051C365.565 227.191 353.159 142.71 293.416 98.357C233.672 54.0039 149.216 66.5743 104.776 126.434C60.3366 186.293 72.7428 270.775 132.486 315.128Z" fill="#6C63FF"/>
<path opacity="0.2" d="M229.083 175.04C237.869 181.563 250.289 179.714 256.825 170.911C263.36 162.108 261.535 149.685 252.75 143.162C243.964 136.64 231.544 138.488 225.008 147.291C218.473 156.094 220.298 168.518 229.083 175.04Z" fill="black"/>
<path opacity="0.2" d="M141.124 293.52C156.353 304.826 177.881 301.622 189.209 286.364C200.537 271.105 197.374 249.571 182.146 238.265C166.917 226.96 145.389 230.164 134.061 245.422C122.733 260.68 125.896 282.215 141.124 293.52Z" fill="black"/>
<path opacity="0.2" d="M107.597 171.383C111.405 174.209 116.787 173.408 119.619 169.593C122.45 165.779 121.66 160.395 117.853 157.569C114.046 154.742 108.663 155.544 105.832 159.358C103 163.173 103.79 168.556 107.597 171.383Z" fill="black"/>
<path opacity="0.2" d="M292.524 165.935C294.548 167.438 297.409 167.012 298.914 164.984C300.42 162.957 299.999 160.095 297.975 158.592C295.952 157.09 293.091 157.515 291.585 159.543C290.08 161.571 290.5 164.433 292.524 165.935Z" fill="black"/>
<path opacity="0.2" d="M196.306 209.22C198.942 211.176 202.668 210.622 204.628 207.981C206.589 205.34 206.042 201.613 203.406 199.656C200.77 197.7 197.044 198.254 195.084 200.895C193.123 203.536 193.67 207.263 196.306 209.22Z" fill="black"/>
<path opacity="0.2" d="M305.548 248.304C307.572 249.807 310.433 249.381 311.938 247.353C313.444 245.325 313.023 242.464 310.999 240.961C308.976 239.459 306.114 239.884 304.609 241.912C303.104 243.94 303.524 246.802 305.548 248.304Z" fill="black"/>
<path opacity="0.2" d="M246.272 264.916C249.196 267.086 253.328 266.471 255.503 263.542C257.678 260.613 257.07 256.479 254.147 254.309C251.224 252.139 247.091 252.754 244.917 255.683C242.742 258.612 243.349 262.746 246.272 264.916Z" fill="black"/>
<path opacity="0.2" d="M173.748 119.949C177.555 122.775 182.937 121.974 185.769 118.159C188.601 114.345 187.81 108.961 184.003 106.135C180.196 103.308 174.814 104.109 171.982 107.924C169.15 111.739 169.94 117.122 173.748 119.949Z" fill="black"/>
<path d="M190.007 286.617C178.642 278.156 167.765 269.06 157.426 259.372C126.304 230.267 101.738 197.852 88.2529 168.098C74.6032 137.979 73.924 114.074 86.3399 100.786C94.9418 91.5795 111.319 89.7812 136.405 95.289C136.746 95.3648 137.044 95.5731 137.232 95.8684C137.42 96.1637 137.483 96.5218 137.407 96.8641C137.332 97.2064 137.124 97.5049 136.828 97.6941C136.533 97.8833 136.175 97.9477 135.833 97.8732C111.737 92.5821 96.1789 94.1252 88.2696 102.59C76.6317 115.045 77.4813 137.92 90.661 167.002C104.006 196.447 128.359 228.564 159.233 257.438C190.108 286.311 223.778 308.456 254.042 319.793C283.933 330.99 306.803 330.298 318.44 317.842C326.314 309.416 328.498 295.906 324.758 278.773C324.683 278.43 324.747 278.072 324.937 277.776C325.126 277.48 325.425 277.272 325.767 277.196C326.11 277.121 326.468 277.185 326.763 277.374C327.058 277.563 327.266 277.861 327.341 278.204C331.275 296.226 328.864 310.556 320.37 319.647C307.954 332.935 284.068 333.867 253.112 322.27C232.956 314.72 211.324 302.443 190.007 286.617Z" fill="white"/>
</svg>
