<svg width="84" height="84" viewBox="0 0 84 84" fill="none" xmlns="http://www.w3.org/2000/svg">
<circle cx="42" cy="42" r="42" fill="#2E3338"/>
<path d="M42 79C62.4345 79 79 62.4345 79 42C79 21.5655 62.4345 5 42 5C21.5655 5 5 21.5655 5 42C5 62.4345 21.5655 79 42 79Z" fill="#6C63FF"/>
<path d="M52.1923 14.3846C52.8508 14.3846 53.3846 13.8508 53.3846 13.1923C53.3846 12.5338 52.8508 12 52.1923 12C51.5338 12 51 12.5338 51 13.1923C51 13.8508 51.5338 14.3846 52.1923 14.3846Z" fill="#E0E4E8"/>
<path d="M47 13C48.1046 13 49 12.1046 49 11C49 9.89543 48.1046 9 47 9C45.8954 9 45 9.89543 45 11C45 12.1046 45.8954 13 47 13Z" fill="white"/>
<path d="M27.6184 15.3782H27.1094C27.0057 15.3782 26.7493 14.9713 26.7493 14.8545V14.3816C26.7493 14.0125 26.3318 13 25.9627 13C25.5937 13 25.1762 14.0125 25.1762 14.3816V14.8545C25.1762 15.0209 25.0477 15.3782 24.8906 15.3782H24.3816C24.0125 15.3782 23 15.6646 23 16.0337C23 16.4028 24.0125 16.6892 24.3816 16.6892H24.9887C25.1809 16.6892 25.1762 16.8869 25.1762 16.9876V17.6184C25.1762 17.9875 25.5937 19 25.9627 19C26.3318 19 26.7493 17.9875 26.7493 17.6184V16.9876C26.7493 16.904 26.9181 16.6892 27.0113 16.6892H27.6184C27.9875 16.6892 29 16.4028 29 16.0337C29 15.6646 27.9875 15.3782 27.6184 15.3782Z" fill="#2E3338"/>
<path d="M12.1597 37.6329L11.9085 37.3373C11.8573 37.2771 11.9671 36.9274 12.0349 36.8698L12.3095 36.6364C12.5238 36.4543 12.9057 35.7123 12.7236 35.498C12.5414 35.2837 11.7475 35.5409 11.5332 35.723L11.2586 35.9564C11.162 36.0385 10.8911 36.1402 10.8136 36.049L10.5625 35.7534C10.3803 35.5391 9.71442 35.0926 9.50012 35.2747C9.28582 35.4568 9.61914 36.186 9.80126 36.4003L10.1008 36.7528C10.1957 36.8645 10.0785 36.9593 10.0201 37.009L9.65379 37.3202C9.43948 37.5024 9.05761 38.2444 9.23973 38.4587C9.42185 38.673 10.2158 38.4158 10.4301 38.2337L10.7963 37.9224C10.8449 37.8811 11.0529 37.8731 11.0989 37.9273L11.3985 38.2798C11.5806 38.4941 12.2465 38.9406 12.4608 38.7585C12.6751 38.5764 12.3418 37.8472 12.1597 37.6329Z" fill="#E0E4E8"/>
<path d="M70.3819 24.8552L70.1307 24.5596C70.0796 24.4994 70.1893 24.1497 70.2571 24.0921L70.5317 23.8587C70.746 23.6766 71.1279 22.9346 70.9458 22.7203C70.7637 22.506 69.9698 22.7632 69.7555 22.9453L69.4808 23.1787C69.3842 23.2608 69.1134 23.3625 69.0359 23.2713L68.7847 22.9757C68.6026 22.7614 67.9366 22.3149 67.7223 22.497C67.508 22.6791 67.8414 23.4083 68.0235 23.6226L68.3231 23.9751C68.4179 24.0867 68.3008 24.1816 68.2423 24.2312L67.876 24.5425C67.6617 24.7247 67.2798 25.4667 67.462 25.681C67.6441 25.8953 68.438 25.6381 68.6523 25.456L69.0186 25.1447C69.0671 25.1034 69.2751 25.0954 69.3211 25.1496L69.6207 25.5021C69.8028 25.7164 70.4687 26.1629 70.683 25.9808C70.8974 25.7987 70.564 25.0695 70.3819 24.8552Z" fill="white"/>
<path d="M39.6184 71.3782H39.1094C39.0057 71.3782 38.7493 70.9713 38.7493 70.8545V70.3816C38.7493 70.0125 38.3318 69 37.9627 69C37.5937 69 37.1762 70.0125 37.1762 70.3816V70.8545C37.1762 71.0209 37.0477 71.3782 36.8906 71.3782H36.3816C36.0125 71.3782 35 71.6646 35 72.0337C35 72.4028 36.0125 72.6892 36.3816 72.6892H36.9887C37.1809 72.6892 37.1762 72.8869 37.1762 72.9876V73.6184C37.1762 73.9875 37.5937 75 37.9627 75C38.3318 75 38.7493 73.9875 38.7493 73.6184V72.9876C38.7493 72.904 38.9181 72.6892 39.0113 72.6892H39.6184C39.9875 72.6892 41 72.4028 41 72.0337C41 71.6646 39.9875 71.3782 39.6184 71.3782Z" fill="white"/>
<path d="M72.6184 43.3782H72.1094C72.0057 43.3782 71.7493 42.9713 71.7493 42.8545V42.3816C71.7493 42.0125 71.3318 41 70.9627 41C70.5937 41 70.1762 42.0125 70.1762 42.3816V42.8545C70.1762 43.0209 70.0477 43.3782 69.8906 43.3782H69.3816C69.0125 43.3782 68 43.6646 68 44.0337C68 44.4028 69.0125 44.6892 69.3816 44.6892H69.9887C70.1809 44.6892 70.1762 44.8869 70.1762 44.9876V45.6184C70.1762 45.9875 70.5937 47 70.9627 47C71.3318 47 71.7493 45.9875 71.7493 45.6184V44.9876C71.7493 44.904 71.9181 44.6892 72.0113 44.6892H72.6184C72.9875 44.6892 74 44.4028 74 44.0337C74 43.6646 72.9875 43.3782 72.6184 43.3782Z" fill="white"/>
<path d="M57.2343 62.7435L57.0081 62.9964C56.962 63.048 56.6459 62.9945 56.5878 62.9426L56.3528 62.7324C56.1694 62.5684 55.4807 62.3259 55.3167 62.5093C55.1527 62.6927 55.4703 63.3502 55.6537 63.5142L55.8887 63.7244C55.9714 63.7983 56.0918 64.0209 56.022 64.099L55.7958 64.352C55.6318 64.5354 55.3241 65.1658 55.5075 65.3298C55.6909 65.4938 56.2832 65.118 56.4472 64.9346L56.717 64.6329C56.8025 64.5373 56.8986 64.6276 56.9487 64.6723L57.2622 64.9527C57.4456 65.1167 58.1342 65.3592 58.2983 65.1758C58.4623 64.9924 58.1447 64.335 57.9613 64.171L57.6478 63.8906C57.6063 63.8535 57.5745 63.6741 57.616 63.6278L57.8858 63.3261C58.0498 63.1427 58.3574 62.5123 58.174 62.3482C57.9906 62.1842 57.3983 62.5601 57.2343 62.7435Z" fill="white"/>
<path d="M23.2343 65.7435L23.0081 65.9964C22.962 66.048 22.6459 65.9945 22.5878 65.9426L22.3528 65.7324C22.1694 65.5684 21.4807 65.3259 21.3167 65.5093C21.1527 65.6927 21.4703 66.3502 21.6537 66.5142L21.8887 66.7244C21.9714 66.7983 22.0918 67.0209 22.022 67.099L21.7958 67.352C21.6318 67.5354 21.3241 68.1658 21.5075 68.3298C21.6909 68.4938 22.2832 68.118 22.4472 67.9346L22.717 67.6329C22.8025 67.5373 22.8986 67.6276 22.9487 67.6723L23.2622 67.9527C23.4456 68.1167 24.1342 68.3592 24.2983 68.1758C24.4623 67.9924 24.1447 67.335 23.9613 67.171L23.6478 66.8906C23.6063 66.8535 23.5745 66.6741 23.616 66.6278L23.8858 66.3261C24.0498 66.1427 24.3574 65.5123 24.174 65.3482C23.9906 65.1842 23.3983 65.5601 23.2343 65.7435Z" fill="white"/>
<path d="M68.0341 23.5024H15.8418V62.3099H63.4041C66.0137 62.3099 68.0341 60.2054 68.0341 57.6799V23.5024Z" fill="#E0E4E8"/>
<path d="M63.3199 63.1516H15.8418C15.3367 63.1516 15 62.8148 15 62.3098V23.5023C15 22.9972 15.3367 22.6605 15.8418 22.6605H68.0341C68.5391 22.6605 68.8759 22.9972 68.8759 23.5023V57.5956C68.8759 60.6261 66.4347 63.1516 63.3199 63.1516ZM16.6836 61.4679H63.32C65.4245 61.4679 67.1924 59.7843 67.1924 57.6798V24.3441H16.6836V61.4679Z" fill="#2E3338"/>
<path d="M19.2091 58.9425V26.8696H64.667V57.5957C64.667 58.3533 64.0777 58.8584 63.3201 58.8584H19.2091V58.9425Z" fill="white"/>
<path d="M63.5725 18.3673C61.1312 18.3673 59.1108 20.3877 59.1108 22.8289V57.1748C59.1108 54.7335 61.1312 52.7132 63.5725 52.7132C66.0137 52.7132 68.0341 54.7335 68.0341 57.1748V22.8288C68.0341 20.3876 66.0138 18.3673 63.5725 18.3673Z" fill="#6C63FF"/>
<path d="M68.0341 58.0166C67.529 58.0166 67.1923 57.6799 67.1923 57.1748C67.1923 55.1544 65.5929 53.555 63.5725 53.555C61.5521 53.555 59.9527 55.1544 59.9527 57.1748C59.9527 57.6799 59.6159 58.0166 59.1108 58.0166C58.6058 58.0166 58.269 57.6799 58.269 57.1748V22.8288C58.269 19.8825 60.626 17.5254 63.5725 17.5254C66.5188 17.5254 68.8759 19.8824 68.8759 22.8288V57.1747C68.8759 57.6799 68.5392 58.0166 68.0341 58.0166ZM63.5725 51.8713C65.0036 51.8713 66.2662 52.3764 67.1923 53.3024V22.8288C67.1923 20.8085 65.5929 19.209 63.5725 19.209C61.5521 19.209 59.9527 20.8085 59.9527 22.8288V53.3024C60.8787 52.4606 62.1415 51.8713 63.5725 51.8713Z" fill="#2E3338"/>
<path d="M52.1239 29.6475H23.1656V33.6882H52.1239V29.6475Z" fill="white"/>
<path d="M52.2081 34.53H23.1656C22.6605 34.53 22.3238 34.1933 22.3238 33.6882V29.6475C22.3238 29.1424 22.6605 28.8057 23.1656 28.8057H52.1239C52.6289 28.8057 52.9657 29.1424 52.9657 29.6475V33.6882C53.0499 34.1933 52.6289 34.53 52.2081 34.53ZM24.0074 32.8464H51.282V30.4893H24.0074V32.8464Z" fill="#2E3338"/>
<path d="M27.2063 38.3182H23.1656V55.6596H27.2063V38.3182Z" fill="white"/>
<path d="M27.2905 56.5013H23.2498C22.7447 56.5013 22.408 56.1645 22.408 55.6595V38.3182C22.408 38.0657 22.4922 37.8974 22.6605 37.7289C22.8288 37.5606 22.9973 37.4764 23.2498 37.4764H27.2905C27.7955 37.4764 28.1323 37.8132 28.1323 38.3182V55.6596C28.1323 56.0804 27.7114 56.5013 27.2905 56.5013ZM24.0074 54.8177H26.3644V39.16H24.0074V54.8177Z" fill="#2E3338"/>
<path d="M32.0046 44.8001L30.1526 41.6013L32.0046 38.3182H35.7927L37.6447 41.6013L35.7927 44.8001H32.0046Z" fill="white"/>
<path d="M35.7928 45.6419H32.0046C31.6679 45.6419 31.4154 45.4736 31.247 45.221L29.3951 41.938C29.2267 41.6854 29.2267 41.3487 29.3951 41.0961L31.247 37.8131C31.4154 37.5605 31.6679 37.3922 32.0046 37.3922H35.7928C36.1295 37.3922 36.3821 37.5605 36.5504 37.8131L38.4023 41.0961C38.5707 41.3487 38.5707 41.6854 38.4023 41.938L36.5504 45.221C36.3821 45.4736 36.1295 45.6419 35.7928 45.6419ZM32.5097 43.9582H35.2877L36.6346 41.517L35.2877 39.0757H32.5097L31.0786 41.517L32.5097 43.9582Z" fill="#2E3338"/>
<path d="M52.2081 39.16H40.7595C40.2544 39.16 39.9177 38.8232 39.9177 38.3181C39.9177 37.8131 40.2544 37.4763 40.7595 37.4763H52.2081C52.7132 37.4763 53.0499 37.8131 53.0499 38.3181C53.0499 38.8232 52.629 39.16 52.2081 39.16Z" fill="#2E3338"/>
<path d="M52.2081 44.9683H40.7595C40.2544 44.9683 39.9177 44.6316 39.9177 44.1265C39.9177 43.6214 40.2544 43.2847 40.7595 43.2847H52.2081C52.7132 43.2847 53.0499 43.6214 53.0499 44.1265C53.0499 44.6316 52.629 44.9683 52.2081 44.9683Z" fill="#2E3338"/>
<path d="M46.1469 56.5013H31.0785C30.5734 56.5013 30.2367 56.1646 30.2367 55.6595C30.2367 55.1544 30.5734 54.8177 31.0785 54.8177H46.1469C46.652 54.8177 46.9888 55.1544 46.9888 55.6595C46.9888 56.1646 46.5679 56.5013 46.1469 56.5013Z" fill="#2E3338"/>
<path d="M52.2081 56.5012C51.703 56.5012 51.3662 56.1645 51.3662 55.6594V49.43C51.3662 48.925 51.703 48.5882 52.2081 48.5882C52.7131 48.5882 53.0499 48.925 53.0499 49.43V55.6594C53.0499 56.0804 52.6289 56.5012 52.2081 56.5012Z" fill="#2E3338"/>
<path d="M31.9204 50.5244H30.2368V52.208H31.9204V50.5244Z" fill="#2E3338"/>
<path d="M35.2877 50.5244H33.6041V52.208H35.2877V50.5244Z" fill="#2E3338"/>
<path d="M38.655 50.5244H36.9714V52.208H38.655V50.5244Z" fill="#2E3338"/>
<path d="M42.0221 50.5244H40.3385V52.208H42.0221V50.5244Z" fill="#2E3338"/>
<path d="M45.3894 50.5244H43.7058V52.208H45.3894V50.5244Z" fill="#2E3338"/>
</svg>
