<svg width="156" height="156" viewBox="0 0 156 156" fill="none" xmlns="http://www.w3.org/2000/svg">
<g filter="url(#filter0_d)">
<path d="M151.962 73.5661C151.962 79.9185 145.96 85.3951 144.396 91.257C142.772 97.3174 145.19 105.048 142.06 110.361C138.931 115.674 131.013 117.507 126.646 121.875C122.279 126.242 120.516 134.171 115.133 137.288C109.749 140.406 102.089 137.942 96.0287 139.624C90.1901 141.189 84.6902 147.191 78.3378 147.191C71.9854 147.191 66.5088 141.189 60.6469 139.624C54.5865 138.001 46.8562 140.418 41.5431 137.288C36.23 134.159 34.3967 126.242 30.0294 121.875C25.6621 117.507 17.7333 115.744 14.6155 110.361C11.4977 104.978 14.02 97.3174 12.3969 91.257C10.8321 85.3951 4.83008 79.9185 4.83008 73.5661C4.83008 67.2137 10.8321 61.7371 12.3969 55.8752C14.02 49.8148 11.6028 42.0378 14.6739 36.7714C17.745 31.505 25.7205 29.625 30.0878 25.2577C34.455 20.8904 36.2183 12.9616 41.6015 9.84385C46.9846 6.72604 54.6448 9.18992 60.7053 7.5668C66.5672 6.00206 72.0438 0 78.3962 0C84.7486 0 90.2252 6.00206 96.0871 7.5668C102.148 9.18992 109.925 6.77275 115.191 9.84385C120.457 12.9149 122.337 20.8904 126.705 25.2577C131.072 29.625 139.001 31.3882 142.118 36.7714C145.236 42.1545 142.772 49.8148 144.454 55.8752C145.96 61.7371 151.962 67.2137 151.962 73.5661Z" fill="#6AB891"/>
<path d="M144.035 93.0786C143.195 98.8004 144.888 105.561 142.12 110.361C139.003 115.744 131.074 117.507 126.706 121.874C122.339 126.242 120.576 134.171 115.193 137.288C109.81 140.406 102.149 137.942 96.089 139.624C90.2504 141.188 84.7504 147.191 78.3981 147.191C72.0457 147.191 66.5691 141.188 60.7072 139.624C54.6467 138.001 46.9164 140.418 41.6033 137.288C36.2902 134.159 34.4569 126.242 30.0896 121.874C25.7224 117.507 17.7936 115.744 14.6758 110.361C11.9083 105.561 13.6015 98.8004 12.7607 93.0786C18.2037 105.991 27.3341 117.011 39.0093 124.759C50.6844 132.508 64.3856 136.641 78.3981 136.641C92.4105 136.641 106.112 132.508 117.787 124.759C129.462 117.011 138.592 105.991 144.035 93.0786Z" fill="#4DA67F"/>
<path d="M78.3995 127.281C108.065 127.281 132.114 103.232 132.114 73.5665C132.114 43.9005 108.065 19.8515 78.3995 19.8515C48.7336 19.8515 24.6846 43.9005 24.6846 73.5665C24.6846 103.232 48.7336 127.281 78.3995 127.281Z" fill="#F3F4F5"/>
<path d="M78.4 19.8515C85.7489 19.8518 93.0195 21.3601 99.762 24.283C106.505 27.2059 112.576 31.4813 117.6 36.8446C122.624 42.2079 126.494 48.545 128.97 55.464C131.447 62.3829 132.477 69.7364 131.998 77.0696C131.1 63.466 125.062 50.7129 115.109 41.3958C105.157 32.0786 92.0333 26.8946 78.4 26.8946C64.7667 26.8946 51.6435 32.0786 41.6907 41.3958C31.7379 50.7129 25.7003 63.466 24.8019 77.0696C24.3226 69.7364 25.3531 62.3829 27.8298 55.464C30.3064 48.545 34.1764 42.2079 39.2004 36.8446C44.2244 31.4813 50.2955 27.2059 57.038 24.283C63.7806 21.3601 71.0512 19.8518 78.4 19.8515Z" fill="#DDE1E8"/>
<path d="M114 73.5074C114 68.6722 108.027 64.09 98.8691 61.2483C100.982 51.7862 100.043 44.2582 95.9046 41.848C94.9507 41.2827 93.8353 41.0149 92.6172 41.0149V44.3326C93.2923 44.3326 93.8353 44.4665 94.2903 44.7194C96.2862 45.8798 97.1521 50.2985 96.477 55.9817C96.3155 57.3802 96.0514 58.8531 95.7285 60.3557C92.852 59.6416 89.7114 59.0911 86.4093 58.734C84.428 55.9817 82.3734 53.4823 80.3041 51.2953C85.0885 46.7874 89.5793 44.3177 92.6319 44.3177V41C88.596 41 83.3127 43.916 77.9706 48.9744C72.6286 43.9458 67.3453 41.0595 63.3094 41.0595V44.3772C66.3473 44.3772 70.8528 46.832 75.6372 51.3101C73.5826 53.4971 71.5279 55.9817 69.576 58.734C66.2593 59.0911 63.1186 59.6416 60.2422 60.3706C59.9046 58.8828 59.6551 57.4397 59.479 56.0561C58.7892 50.3729 59.6404 45.9542 61.6217 44.7789C62.062 44.5111 62.6343 44.3921 63.3094 44.3921V41.0744C62.0766 41.0744 60.9613 41.3422 59.9927 41.9075C55.8687 44.3177 54.9441 51.8309 57.0722 61.2632C47.9437 64.1197 42 68.6871 42 73.5074C42 78.3426 47.9731 82.9249 57.1309 85.7665C55.0175 95.2287 55.9568 102.757 60.0954 105.167C61.0493 105.732 62.1647 106 63.3975 106C67.4333 106 72.7167 103.084 78.0587 98.0256C83.4007 103.054 88.6841 105.94 92.7199 105.94C93.9527 105.94 95.0681 105.673 96.0367 105.107C100.161 102.697 101.085 95.184 98.9572 85.7517C108.056 82.91 114 78.3278 114 73.5074ZM94.892 63.5841C94.349 65.5033 93.6739 67.482 92.9107 69.4607C92.309 68.2705 91.6779 67.0803 90.9882 65.8901C90.3131 64.6999 89.594 63.5395 88.8749 62.4088C90.9588 62.7212 92.9694 63.108 94.892 63.5841ZM88.1704 79.4287C87.0257 81.4372 85.8516 83.3415 84.6335 85.1119C82.4468 85.3053 80.2307 85.4095 78 85.4095C75.7839 85.4095 73.5679 85.3053 71.3958 85.1268C70.1777 83.3564 68.989 81.4669 67.8443 79.4733C66.7289 77.5244 65.7163 75.5457 64.7917 73.5521C65.7016 71.5585 66.7289 69.5649 67.8296 67.6159C68.9743 65.6075 70.1484 63.7031 71.3665 61.9327C73.5532 61.7393 75.7693 61.6352 78 61.6352C80.2161 61.6352 82.4321 61.7393 84.6042 61.9178C85.8223 63.6883 87.011 65.5777 88.1557 67.5713C89.2711 69.5203 90.2837 71.499 91.2083 73.4926C90.2837 75.4861 89.2711 77.4797 88.1704 79.4287ZM92.9107 77.4946C93.7032 79.4882 94.3783 81.4818 94.936 83.4159C93.0135 83.892 90.9882 84.2937 88.8895 84.6061C89.6086 83.4605 90.3278 82.2852 91.0029 81.0801C91.678 79.8899 92.309 78.6848 92.9107 77.4946ZM78.0294 93.369C76.6645 91.9407 75.2996 90.3488 73.9495 88.6081C75.2703 88.6677 76.6205 88.7123 77.9853 88.7123C79.3649 88.7123 80.7297 88.6825 82.0652 88.6081C80.7444 90.3488 79.3795 91.9407 78.0294 93.369ZM67.1105 84.6061C65.0265 84.2937 63.0159 83.9068 61.0934 83.4308C61.6364 81.5116 62.3115 79.5328 63.0746 77.5541C63.6763 78.7443 64.3074 79.9345 64.9971 81.1247C65.6869 82.3149 66.3914 83.4754 67.1105 84.6061ZM77.956 53.6459C79.3208 55.0742 80.6857 56.6661 82.0359 58.4067C80.715 58.3472 79.3649 58.3026 78 58.3026C76.6205 58.3026 75.2556 58.3323 73.9201 58.4067C75.2409 56.6661 76.6058 55.0742 77.956 53.6459ZM67.0958 62.4088C66.3767 63.5544 65.6576 64.7297 64.9825 65.9348C64.3074 67.125 63.6763 68.3152 63.0746 69.5054C62.2821 67.5118 61.607 65.5182 61.0493 63.5841C62.9719 63.1229 64.9972 62.7212 67.0958 62.4088ZM53.8141 81.0355C48.6188 78.789 45.2581 75.8432 45.2581 73.5074C45.2581 71.1717 48.6188 68.211 53.8141 65.9794C55.0762 65.4289 56.4558 64.938 57.8793 64.4768C58.7159 67.3928 59.8166 70.4278 61.1814 73.5372C59.8312 76.6317 58.7452 79.6519 57.9234 82.553C56.4704 82.0918 55.0909 81.5859 53.8141 81.0355ZM61.7097 102.295C59.7138 101.135 58.8479 96.7164 59.523 91.0332C59.6845 89.6347 59.9486 88.1618 60.2715 86.6592C63.148 87.3733 66.2886 87.9238 69.5907 88.2808C71.572 91.0332 73.6266 93.5326 75.6959 95.7196C70.9115 100.228 66.4207 102.697 63.3681 102.697C62.7077 102.682 62.15 102.548 61.7097 102.295ZM96.521 90.9588C97.2108 96.642 96.3596 101.061 94.3783 102.236C93.938 102.504 93.3657 102.623 92.6906 102.623C89.6527 102.623 85.1472 100.168 80.3628 95.6899C82.4175 93.5029 84.4721 91.0183 86.424 88.266C89.7407 87.9089 92.8814 87.3584 95.7578 86.6294C96.0954 88.1321 96.3596 89.5752 96.521 90.9588ZM102.171 81.0355C100.909 81.5859 99.5296 82.0769 98.106 82.5381C97.2695 79.6221 96.1688 76.5871 94.8039 73.4777C96.1541 70.3832 97.2401 67.363 98.062 64.4619C99.5149 64.9231 100.894 65.4289 102.186 65.9794C107.381 68.2259 110.742 71.1717 110.742 73.5074C110.727 75.8432 107.366 78.8038 102.171 81.0355Z" fill="#61DAFB"/>
<path d="M78 80C81.866 80 85 77.0898 85 73.5C85 69.9101 81.866 67 78 67C74.134 67 71 69.9101 71 73.5C71 77.0898 74.134 80 78 80Z" fill="#61DAFB"/>
</g>
<defs>
<filter id="filter0_d" x="0.830078" y="0" width="155.132" height="155.191" filterUnits="userSpaceOnUse" color-interpolation-filters="sRGB">
<feFlood flood-opacity="0" result="BackgroundImageFix"/>
<feColorMatrix in="SourceAlpha" type="matrix" values="0 0 0 0 0 0 0 0 0 0 0 0 0 0 0 0 0 0 127 0"/>
<feOffset dy="4"/>
<feGaussianBlur stdDeviation="2"/>
<feColorMatrix type="matrix" values="0 0 0 0 0 0 0 0 0 0 0 0 0 0 0 0 0 0 0.25 0"/>
<feBlend mode="normal" in2="BackgroundImageFix" result="effect1_dropShadow"/>
<feBlend mode="normal" in="SourceGraphic" in2="effect1_dropShadow" result="shape"/>
</filter>
</defs>
</svg>
