<svg width="84" height="84" viewBox="0 0 84 84" fill="none" xmlns="http://www.w3.org/2000/svg">
<circle cx="42" cy="42" r="42" fill="#2E3338"/>
<path d="M29.0006 18.0467H28.3392C28.2045 18.0467 27.8714 17.518 27.8714 17.3663V16.7518C27.8714 16.2723 27.3289 14.9568 26.8494 14.9568C26.3699 14.9568 25.8274 16.2723 25.8274 16.7518V17.3663C25.8274 17.5825 25.6605 18.0467 25.4564 18.0467H24.795C24.3155 18.0467 23 18.4189 23 18.8984C23 19.3779 24.3155 19.75 24.795 19.75H25.5838C25.8336 19.75 25.8274 20.007 25.8274 20.1378V20.9574C25.8274 21.437 26.3699 22.7525 26.8494 22.7525C27.3289 22.7525 27.8714 21.437 27.8714 20.9574V20.1378C27.8714 20.0292 28.0907 19.75 28.2118 19.75H29.0006C29.4801 19.75 30.7957 19.3779 30.7957 18.8984C30.7957 18.4188 29.4801 18.0467 29.0006 18.0467Z" fill="#2196F3"/>
<path d="M39.184 10.1366C40.3263 10.1366 41.2523 9.21061 41.2523 8.06831C41.2523 6.92602 40.3263 6 39.184 6C38.0417 6 37.1157 6.92602 37.1157 8.06831C37.1157 9.21061 38.0417 10.1366 39.184 10.1366Z" fill="url(#paint0_linear)"/>
<path d="M39.1842 9.33161C39.8819 9.33161 40.4475 8.76602 40.4475 8.06833C40.4475 7.37064 39.8819 6.80505 39.1842 6.80505C38.4865 6.80505 37.9209 7.37064 37.9209 8.06833C37.9209 8.76602 38.4865 9.33161 39.1842 9.33161Z" fill="#0D47A1"/>
<path d="M15.0683 27.1366C16.2106 27.1366 17.1366 26.2106 17.1366 25.0683C17.1366 23.926 16.2106 23 15.0683 23C13.926 23 13 23.926 13 25.0683C13 26.2106 13.926 27.1366 15.0683 27.1366Z" fill="url(#paint1_linear)"/>
<path d="M14.9972 26.3032C15.6557 26.3032 16.1896 25.7694 16.1896 25.1109C16.1896 24.4524 15.6557 23.9186 14.9972 23.9186C14.3387 23.9186 13.8049 24.4524 13.8049 25.1109C13.8049 25.7694 14.3387 26.3032 14.9972 26.3032Z" fill="#0D47A1"/>
<path d="M47.7121 22.4242C48.6577 22.4242 49.4242 21.6577 49.4242 20.7121C49.4242 19.7665 48.6577 19 47.7121 19C46.7665 19 46 19.7665 46 20.7121C46 21.6577 46.7665 22.4242 47.7121 22.4242Z" fill="url(#paint2_linear)"/>
<path d="M47.7121 21.8973C48.3666 21.8973 48.8973 21.3666 48.8973 20.7121C48.8973 20.0575 48.3666 19.5269 47.7121 19.5269C47.0575 19.5269 46.5269 20.0575 46.5269 20.7121C46.5269 21.3666 47.0575 21.8973 47.7121 21.8973Z" fill="#82A9FF"/>
<path d="M55.7121 16.4242C56.6577 16.4242 57.4242 15.6577 57.4242 14.7121C57.4242 13.7665 56.6577 13 55.7121 13C54.7665 13 54 13.7665 54 14.7121C54 15.6577 54.7665 16.4242 55.7121 16.4242Z" fill="url(#paint3_linear)"/>
<path d="M55.7121 15.8973C56.3666 15.8973 56.8973 15.3666 56.8973 14.7121C56.8973 14.0575 56.3666 13.5269 55.7121 13.5269C55.0575 13.5269 54.5269 14.0575 54.5269 14.7121C54.5269 15.3666 55.0575 15.8973 55.7121 15.8973Z" fill="#0D47A1"/>
<path d="M28.9677 52.8323L25.9141 45.6831C22.2366 46.8625 14.4479 50.5336 12.7137 55.7828C18.1176 57.7953 25.8013 54.6543 28.9677 52.8323Z" fill="#E2607F"/>
<path d="M28.4781 51.6862L26.3693 46.7489C23.8487 47.5552 18.5127 50.0722 17.3334 53.6896C21.0445 55.0884 26.3095 52.9369 28.4781 51.6862Z" fill="#FBCC88"/>
<path d="M30.2723 41.5292C30.1654 41.3602 30.0442 41.2019 29.9108 41.0568C26.9373 37.8222 18.3924 41.6326 18.3924 41.6326L17.9025 40.5118C17.9025 40.5118 21.4272 38.551 26.0038 34.719C30.1206 31.2696 36.8363 35.102 38.1432 35.9052C38.2894 35.996 38.3682 36.0473 38.3682 36.0473C39.0578 42.5623 30.2723 41.5292 30.2723 41.5292Z" fill="#AFC0E0"/>
<path opacity="0.2" d="M38.4013 36.5287C38.3959 36.3739 38.3862 36.2159 38.3686 36.0513C38.3686 36.0513 38.2903 36.0014 38.1436 35.9092C36.8367 35.1061 30.1209 31.2736 26.0042 34.723C21.4276 38.555 17.9025 40.5118 17.9025 40.5118L18.178 41.142C18.178 41.142 21.7042 39.1847 26.2793 35.3492C30.3766 31.915 37.0525 35.6993 38.4013 36.5287Z" fill="white"/>
<path d="M37.4393 60.8861C31.5168 61.6388 27.6873 62.899 27.6873 62.899L27.1965 61.7761C27.1965 61.7761 36.1867 57.9308 35.406 53.4192C35.3903 53.321 35.3691 53.2233 35.3426 53.1267C35.3426 53.1267 40.5508 45.9748 44.8637 50.9087C44.8637 50.9087 44.852 50.9828 44.8253 51.1189C44.5575 52.4994 42.8286 60.1992 37.4393 60.8861Z" fill="#AFC0E0"/>
<path opacity="0.1" d="M30.2722 41.5292C30.1653 41.3602 30.0442 41.2019 29.9108 41.0567C32.5117 39.1002 35.263 37.3784 38.142 35.9057C38.2881 35.9965 38.367 36.0477 38.367 36.0477C39.0578 42.5622 30.2722 41.5292 30.2722 41.5292Z" fill="black"/>
<path opacity="0.1" d="M44.825 51.1215C41.774 52.1771 38.6231 52.9467 35.4033 53.4229C35.3876 53.3247 35.3664 53.227 35.3399 53.1304C35.3399 53.1304 40.5481 45.9785 44.861 50.9124C44.8625 50.9092 44.8508 50.9833 44.825 51.1215Z" fill="black"/>
<path d="M33.884 53.4078C32.368 53.5997 30.7874 53.7388 29.1422 53.8251C29.1422 53.8251 25.778 52.2929 25.3789 45.2147C25.3789 45.2147 26.5904 43.9606 28.8096 42.1938C33.6882 38.3071 43.4398 31.941 55.8943 30.9804C59.6337 30.681 63.4445 30.9128 67.2361 31.6704C67.2361 31.6704 65.4611 36.276 60.4054 41.2966C55.3497 46.3173 47.0109 51.7507 33.884 53.4078Z" fill="white"/>
<path d="M45.254 41.8875C46.4744 44.6796 49.4134 46.0908 51.8187 45.0395C54.2239 43.9883 55.1844 40.8726 53.9641 38.0806C52.7438 35.2885 49.8047 33.8773 47.3995 34.9286C44.9943 35.9798 44.0337 39.0954 45.254 41.8875Z" fill="#AFC0E0"/>
<path d="M51.1737 43.5705C50.5888 43.8261 49.9317 43.8837 49.2788 43.7365C48.6259 43.5894 48.004 43.2435 47.4856 42.7393C46.9671 42.235 46.5734 41.593 46.3501 40.8879C46.1269 40.1829 46.0834 39.4438 46.2246 38.7566C46.2944 38.4208 46.4069 38.1024 46.559 37.8102C46.6267 37.6793 46.7024 37.5541 46.7855 37.4355C47.1101 36.9734 47.5406 36.6182 48.0399 36.4005C48.0648 36.3896 48.0892 36.379 48.1135 36.3684C48.782 36.0981 49.5352 36.0827 50.2627 36.3244C50.9902 36.5661 51.6538 37.0523 52.1562 37.7116C52.3462 37.9642 52.5109 38.2376 52.6468 38.5261L52.6937 38.6334C52.8998 39.1042 53.0239 39.6054 53.0591 40.1084C53.0942 40.6114 53.0396 41.1062 52.8985 41.5647C52.7573 42.0232 52.5324 42.4363 52.2364 42.7805C51.9405 43.1246 51.5793 43.3931 51.1737 43.5705Z" fill="#6C63FF"/>
<path d="M60.4051 41.2959C55.5324 36.594 55.8946 30.9761 55.8946 30.9761C59.6341 30.6781 63.4448 30.9114 67.2361 31.6704C67.2361 31.6704 65.4611 36.276 60.4051 41.2959Z" fill="#AFC0E0"/>
<path d="M33.884 53.4078C32.8572 53.5371 31.8014 53.6427 30.7167 53.7245C30.1998 53.7644 29.6754 53.7975 29.1438 53.8236C29.1438 53.8236 25.7796 52.2914 25.3804 45.2131C25.3804 45.2131 25.7737 44.8059 26.5215 44.126C27.0873 43.6147 27.855 42.9505 28.8102 42.1901C28.8102 42.1901 28.9674 44.8214 30.3737 48.039C31.2367 50.0293 32.4295 51.8537 33.884 53.4078Z" fill="#AFC0E0"/>
<path d="M30.7167 53.7245C30.1997 53.7644 29.6754 53.7974 29.1437 53.8236C29.1437 53.8236 25.7796 52.2914 25.3804 45.2131C25.3804 45.2131 25.7737 44.8059 26.5215 44.126C26.5212 44.1253 27.6957 51.0042 30.7167 53.7245Z" fill="#E3E8F4"/>
<path opacity="0.2" d="M52.1614 37.7118L52.1531 37.7062L48.1184 36.3678C48.0941 36.3785 48.0698 36.3891 48.0448 36.4C47.5455 36.6177 47.115 36.9728 46.7904 37.435L52.6527 38.5277L52.1614 37.7118Z" fill="white"/>
<path opacity="0.2" d="M49.9103 39.6859L46.227 38.7555C46.2968 38.4197 46.4093 38.1012 46.5614 37.8091L50.0211 39.3231L49.9103 39.6859Z" fill="white"/>
<path opacity="0.2" d="M25.9754 46.5763C25.9754 46.5763 27.1876 45.3219 29.4061 43.5553C34.2853 39.6685 44.037 33.3023 56.4915 32.3417C59.8585 32.0751 63.2841 32.2375 66.7026 32.8257C67.0708 32.0957 67.2345 31.6685 67.2345 31.6685C63.4437 30.9102 59.6335 30.6776 55.8946 30.976C43.4401 31.9366 33.6884 38.3028 28.8092 42.1897C26.5907 43.9562 25.3786 45.2106 25.3786 45.2106C25.537 48.0069 26.1576 49.9372 26.8502 51.2501C26.4197 50.058 26.0861 48.5277 25.9754 46.5763Z" fill="white"/>
<path d="M63.9999 63.4269L62.2229 63.037L62.612 61.2597L61.4272 61L61.0374 62.7773L59.2596 62.3882L58.9999 63.5731L60.7778 63.963L60.3886 65.741L61.5733 66L61.9632 64.2227L63.7403 64.6118L63.9999 63.4269Z" fill="white"/>
<path d="M73.9999 50.4562L72.9337 50.2222L73.1672 49.1558L72.4563 49L72.2224 50.0664L71.1557 49.8329L70.9999 50.5439L72.0666 50.7778L71.8331 51.8446L72.544 52L72.7779 50.9336L73.8441 51.1671L73.9999 50.4562Z" fill="white"/>
<path d="M53 74.4562L51.9337 74.2222L52.1672 73.1558L51.4564 73L51.2225 74.0664L50.1558 73.8329L50 74.5438L51.0667 74.7778L50.8332 75.8446L51.544 76L51.778 74.9336L52.8442 75.1671L53 74.4562Z" fill="white"/>
<defs>
<linearGradient id="paint0_linear" x1="919.407" y1="961.434" x2="919.407" y2="911.203" gradientUnits="userSpaceOnUse">
<stop stop-color="#808080" stop-opacity="0.25"/>
<stop offset="0.53514" stop-color="#808080" stop-opacity="0.12"/>
<stop offset="1" stop-color="#808080" stop-opacity="0.1"/>
</linearGradient>
<linearGradient id="paint1_linear" x1="2214.88" y1="597.865" x2="2214.88" y2="547.634" gradientUnits="userSpaceOnUse">
<stop stop-color="#808080" stop-opacity="0.25"/>
<stop offset="0.53514" stop-color="#808080" stop-opacity="0.12"/>
<stop offset="1" stop-color="#808080" stop-opacity="0.1"/>
</linearGradient>
<linearGradient id="paint2_linear" x1="2121.25" y1="493.278" x2="2121.25" y2="458.86" gradientUnits="userSpaceOnUse">
<stop stop-color="#808080" stop-opacity="0.25"/>
<stop offset="0.53514" stop-color="#808080" stop-opacity="0.12"/>
<stop offset="1" stop-color="#808080" stop-opacity="0.1"/>
</linearGradient>
<linearGradient id="paint3_linear" x1="2129.25" y1="487.278" x2="2129.25" y2="452.86" gradientUnits="userSpaceOnUse">
<stop stop-color="#808080" stop-opacity="0.25"/>
<stop offset="0.53514" stop-color="#808080" stop-opacity="0.12"/>
<stop offset="1" stop-color="#808080" stop-opacity="0.1"/>
</linearGradient>
</defs>
</svg>
