<svg width="101" height="119" viewBox="0 0 101 119" fill="none" xmlns="http://www.w3.org/2000/svg">
<path d="M10.5707 39.3891L7.7875 36.5588C6.5827 35.3527 5.90634 33.7175 5.90723 32.0127C5.90811 30.308 6.58616 28.6734 7.79221 27.4686C8.99827 26.2638 10.6335 25.5875 12.3383 25.5884C14.043 25.5893 15.6775 26.2673 16.8823 27.4734L19.4202 30.0207L10.5707 39.3891Z" fill="#EDEDED"/>
<path d="M82.4795 30.0679L85.0174 27.5206C85.6139 26.9234 86.3223 26.4496 87.1019 26.1262C87.8816 25.8028 88.7174 25.6361 89.5615 25.6356C90.4056 25.6352 91.2415 25.801 92.0215 26.1236C92.8015 26.4462 93.5103 26.9193 94.1075 27.5159C94.7047 28.1124 95.1785 28.8208 95.5019 29.6005C95.8254 30.3801 95.9921 31.2159 95.9925 32.06C95.9929 32.9041 95.8271 33.74 95.5045 34.52C95.1819 35.3 94.7088 36.0088 94.1122 36.606L91.2819 39.4364L82.4795 30.0679Z" fill="#EDEDED"/>
<path d="M19.42 30.0676L10.5704 39.3889C7.88158 36.7001 5.14558 34.6717 6.07016 30.6431C6.96643 34.7094 10.9289 36.1812 13.2781 33.6999L18.0425 28.6902L19.42 30.0676Z" fill="#D7D7D7"/>
<path d="M91.3291 39.3889L82.4795 30.0676L83.8569 28.6902L88.6213 33.6999C90.9328 36.134 94.9236 34.7566 95.8293 30.6431C96.7444 34.7377 94.0273 36.6906 91.3291 39.3889Z" fill="#D7D7D7"/>
<path d="M50.9501 118.875C78.5659 118.875 100.953 96.4875 100.953 68.8717C100.953 41.2559 78.5659 18.8689 50.9501 18.8689C23.3343 18.8689 0.947266 41.2559 0.947266 68.8717C0.947266 96.4875 23.3343 118.875 50.9501 118.875Z" fill="#4B567B"/>
<path d="M50.9501 118.875C22.0051 118.875 -0.260338 94.4959 0.947277 66.9849C0.947277 80.2465 6.21541 92.9649 15.5928 102.342C24.9701 111.72 37.6885 116.988 50.9501 116.988C64.2117 116.988 76.9301 111.72 86.3074 102.342C95.6848 92.9649 100.953 80.2465 100.953 66.9849C102.161 94.4959 79.8951 118.875 50.9501 118.875Z" fill="#8288A1"/>
<path d="M50.951 108.497C72.8352 108.497 90.5759 90.756 90.5759 68.8718C90.5759 46.9876 72.8352 29.2469 50.951 29.2469C29.0668 29.2469 11.3262 46.9876 11.3262 68.8718C11.3262 90.756 29.0668 108.497 50.951 108.497Z" fill="#F9F9F9"/>
<path d="M90.5739 70.7587C90.5739 60.2495 86.3992 50.1708 78.9681 42.7397C71.5369 35.3086 61.4582 31.1338 50.949 31.1338C40.4399 31.1338 30.3611 35.3086 22.93 42.7397C15.4989 50.1708 11.3242 60.2495 11.3242 70.7587C10.5977 46.7196 29.3158 29.2469 50.949 29.2469C72.5823 29.2469 91.2626 46.6442 90.5739 70.7587Z" fill="#C7CDD8"/>
<path d="M58.4985 0H43.4033V11.3214H58.4985V0Z" fill="#4B567B"/>
<path d="M58.4985 7.54761H43.4033V11.3214H58.4985V7.54761Z" fill="#3E4867"/>
<path d="M50.0068 35.8511V33.0207C50.0068 32.7705 50.1062 32.5305 50.2832 32.3536C50.4601 32.1767 50.7001 32.0773 50.9503 32.0773C51.2005 32.0773 51.4405 32.1767 51.6174 32.3536C51.7943 32.5305 51.8937 32.7705 51.8937 33.0207V35.8511C51.8937 36.1013 51.7943 36.3413 51.6174 36.5182C51.4405 36.6951 51.2005 36.7945 50.9503 36.7945C50.7001 36.7945 50.4601 36.6951 50.2832 36.5182C50.1062 36.3413 50.0068 36.1013 50.0068 35.8511Z" fill="#D7D7D7"/>
<path d="M50.0068 104.723V101.893C50.0068 101.642 50.1062 101.402 50.2832 101.225C50.4601 101.049 50.7001 100.949 50.9503 100.949C51.2005 100.949 51.4405 101.049 51.6174 101.225C51.7943 101.402 51.8937 101.642 51.8937 101.893V104.723C51.8937 104.973 51.7943 105.213 51.6174 105.39C51.4405 105.567 51.2005 105.666 50.9503 105.666C50.7001 105.666 50.4601 105.567 50.2832 105.39C50.1062 105.213 50.0068 104.973 50.0068 104.723Z" fill="#D7D7D7"/>
<path d="M86.8011 69.8153H83.9708C83.7206 69.8153 83.4806 69.7159 83.3037 69.539C83.1267 69.362 83.0273 69.1221 83.0273 68.8719C83.0273 68.6216 83.1267 68.3817 83.3037 68.2047C83.4806 68.0278 83.7206 67.9284 83.9708 67.9284H86.8011C87.0514 67.9284 87.2913 68.0278 87.4683 68.2047C87.6452 68.3817 87.7446 68.6216 87.7446 68.8719C87.7446 69.1221 87.6452 69.362 87.4683 69.539C87.2913 69.7159 87.0514 69.8153 86.8011 69.8153Z" fill="#D7D7D7"/>
<path d="M17.93 69.8153H15.0997C14.8495 69.8153 14.6095 69.7159 14.4326 69.539C14.2556 69.362 14.1562 69.1221 14.1562 68.8719C14.1562 68.6216 14.2556 68.3817 14.4326 68.2047C14.6095 68.0278 14.8495 67.9284 15.0997 67.9284H17.93C18.1803 67.9284 18.4202 68.0278 18.5972 68.2047C18.7741 68.3817 18.8735 68.6216 18.8735 68.8719C18.8735 69.1221 18.7741 69.362 18.5972 69.539C18.4202 69.7159 18.1803 69.8153 17.93 69.8153Z" fill="#D7D7D7"/>
<path d="M33.8456 37.3512C33.9707 37.5689 34.0042 37.8274 33.9388 38.0698C33.8733 38.3122 33.7142 38.5186 33.4965 38.6437C33.2789 38.7688 33.0204 38.8023 32.778 38.7369C32.5356 38.6714 32.3291 38.5123 32.204 38.2946C32.0789 38.077 32.0454 37.8185 32.1109 37.5761C32.1763 37.3337 32.3354 37.1272 32.5531 37.0021C32.7708 36.877 33.0293 36.8435 33.2717 36.909C33.5141 36.9744 33.7205 37.1335 33.8456 37.3512Z" fill="#D7D7D7"/>
<path d="M69.6962 99.449C69.8213 99.6667 69.8548 99.9251 69.7894 100.168C69.7239 100.41 69.5648 100.616 69.3471 100.741C69.1294 100.867 68.871 100.9 68.6286 100.835C68.3862 100.769 68.1797 100.61 68.0546 100.392C67.9927 100.285 67.9525 100.166 67.9366 100.042C67.9206 99.9191 67.929 99.7939 67.9615 99.6739C67.9939 99.5538 68.0496 99.4414 68.1255 99.3429C68.2014 99.2444 68.2959 99.1618 68.4037 99.0999C68.5115 99.0379 68.6304 98.9978 68.7537 98.9819C68.877 98.9659 69.0022 98.9743 69.1222 99.0067C69.2423 99.0392 69.3547 99.0949 69.4532 99.1708C69.5517 99.2467 69.6343 99.3412 69.6962 99.449Z" fill="#D7D7D7"/>
<path d="M68.0546 37.3512C67.9295 37.5689 67.896 37.8274 67.9615 38.0698C68.0269 38.3122 68.186 38.5186 68.4037 38.6437C68.6214 38.7688 68.8798 38.8023 69.1222 38.7369C69.3646 38.6714 69.5711 38.5123 69.6962 38.2946C69.7582 38.1869 69.7983 38.0679 69.8143 37.9446C69.8302 37.8213 69.8218 37.6961 69.7894 37.5761C69.7569 37.4561 69.7012 37.3436 69.6253 37.2451C69.5495 37.1466 69.4549 37.0641 69.3471 37.0021C69.2393 36.9402 69.1204 36.9001 68.9971 36.8841C68.8738 36.8681 68.7486 36.8766 68.6286 36.909C68.5086 36.9414 68.3961 36.9971 68.2976 37.073C68.1991 37.1489 68.1166 37.2434 68.0546 37.3512Z" fill="#D7D7D7"/>
<path d="M32.204 99.449C32.0789 99.6667 32.0454 99.9251 32.1109 100.168C32.1763 100.41 32.3354 100.616 32.5531 100.742C32.7708 100.867 33.0293 100.9 33.2717 100.835C33.5141 100.769 33.7205 100.61 33.8456 100.392C33.9707 100.175 34.0042 99.9163 33.9388 99.6739C33.8733 99.4315 33.7142 99.225 33.4965 99.0999C33.2789 98.9748 33.0204 98.9413 32.778 99.0067C32.5356 99.0722 32.3291 99.2313 32.204 99.449Z" fill="#D7D7D7"/>
<path d="M19.4281 85.9765C19.6458 85.8514 19.9043 85.8179 20.1467 85.8833C20.3891 85.9488 20.5955 86.1079 20.7206 86.3256C20.8457 86.5433 20.8792 86.8017 20.8138 87.0441C20.7483 87.2865 20.5892 87.493 20.3716 87.6181C20.1539 87.7432 19.8954 87.7767 19.653 87.7112C19.4106 87.6458 19.2041 87.4867 19.079 87.269C18.9539 87.0513 18.9204 86.7928 18.9859 86.5505C19.0513 86.3081 19.2104 86.1016 19.4281 85.9765Z" fill="#D7D7D7"/>
<path d="M81.5277 50.1255C81.6355 50.0636 81.7544 50.0235 81.8777 50.0075C82.001 49.9915 82.1263 50 82.2463 50.0324C82.3663 50.0648 82.4788 50.1205 82.5772 50.1964C82.6757 50.2723 82.7583 50.3668 82.8202 50.4746C82.8822 50.5824 82.9223 50.7013 82.9383 50.8246C82.9543 50.9479 82.9458 51.0731 82.9134 51.1932C82.881 51.3132 82.8252 51.4257 82.7494 51.5241C82.6735 51.6226 82.579 51.7052 82.4712 51.7671C82.2535 51.8922 81.995 51.9257 81.7526 51.8603C81.5102 51.7948 81.3037 51.6357 81.1786 51.4181C81.0535 51.2004 81.02 50.9419 81.0855 50.6995C81.1509 50.4571 81.31 50.2506 81.5277 50.1255Z" fill="#D7D7D7"/>
<path d="M19.4281 51.7671C19.5359 51.8291 19.6548 51.8692 19.7781 51.8852C19.9014 51.9012 20.0266 51.8927 20.1467 51.8603C20.2667 51.8279 20.3791 51.7721 20.4776 51.6963C20.5761 51.6204 20.6587 51.5258 20.7206 51.4181C20.7826 51.3103 20.8227 51.1913 20.8387 51.068C20.8547 50.9448 20.8462 50.8195 20.8138 50.6995C20.7814 50.5795 20.7256 50.467 20.6497 50.3685C20.5739 50.2701 20.4793 50.1875 20.3716 50.1255C20.1539 50.0004 19.8954 49.9669 19.653 50.0324C19.4106 50.0978 19.2041 50.2569 19.079 50.4746C18.9539 50.6923 18.9204 50.9508 18.9859 51.1932C19.0513 51.4356 19.2104 51.642 19.4281 51.7671Z" fill="#D7D7D7"/>
<path d="M81.5277 87.6181C81.7454 87.7432 82.0039 87.7767 82.2463 87.7112C82.4887 87.6458 82.6951 87.4867 82.8202 87.269C82.9453 87.0513 82.9789 86.7928 82.9134 86.5505C82.8479 86.3081 82.6889 86.1016 82.4712 85.9765C82.2535 85.8514 81.995 85.8179 81.7526 85.8833C81.5102 85.9488 81.3037 86.1079 81.1786 86.3256C81.0535 86.5433 81.02 86.8017 81.0855 87.0441C81.1509 87.2865 81.31 87.493 81.5277 87.6181Z" fill="#D7D7D7"/>
<path d="M53.7798 11.3213H48.1191V18.8689H53.7798V11.3213Z" fill="#4B567B"/>
<path d="M53.7798 16.0387H48.1191V18.869H53.7798V16.0387Z" fill="#3E4867"/>
<path d="M72.3803 67.9837C72.3803 69.8313 70.6347 71.4241 70.1796 73.129C69.7075 74.8917 70.4105 77.14 69.5003 78.6852C68.5901 80.2305 66.2875 80.7637 65.0173 82.0339C63.7471 83.3041 63.2343 85.6101 61.6686 86.5169C60.103 87.4237 57.875 86.7071 56.1124 87.1962C54.4143 87.6513 52.8147 89.3969 50.9671 89.3969C49.1196 89.3969 47.5267 87.6513 45.8218 87.1962C44.0592 86.7241 41.8109 87.4271 40.2656 86.5169C38.7203 85.6067 38.1871 83.3041 36.9169 82.0339C35.6468 80.7637 33.3407 80.2509 32.4339 78.6852C31.5271 77.1196 32.2607 74.8917 31.7886 73.129C31.3335 71.4241 29.5879 69.8313 29.5879 67.9837C29.5879 66.1362 31.3335 64.5434 31.7886 62.8385C32.2607 61.0758 31.5577 58.8139 32.4509 57.2822C33.3441 55.7505 35.6637 55.2037 36.9339 53.9336C38.2041 52.6634 38.7169 50.3573 40.2826 49.4505C41.8483 48.5437 44.0762 49.2604 45.8388 48.7883C47.5437 48.3332 49.1366 46.5875 50.9841 46.5875C52.8316 46.5875 54.4245 48.3332 56.1294 48.7883C57.892 49.2604 60.1539 48.5573 61.6856 49.4505C63.2173 50.3437 63.7641 52.6634 65.0343 53.9336C66.3045 55.2037 68.6105 55.7166 69.5173 57.2822C70.4241 58.8479 69.7075 61.0758 70.1965 62.8385C70.6347 64.5434 72.3803 66.1362 72.3803 67.9837Z" fill="#6AB891"/>
<path d="M30.2676 65.7932C30.2831 67.8182 30.5966 69.83 31.1982 71.7637C29.8227 69.2981 28.8786 68.3437 30.2676 65.7932Z" fill="#4DA67F"/>
<path d="M70.0749 73.6589C69.8304 75.323 70.3228 77.2894 69.5179 78.6853C68.6111 80.2509 66.3051 80.7638 65.0349 82.034C63.7647 83.3042 63.2519 85.6102 61.6862 86.517C60.1206 87.4238 57.8926 86.7072 56.13 87.1962C54.4319 87.6513 52.8323 89.397 50.9847 89.397C49.1372 89.397 47.5443 87.6513 45.8394 87.1962C44.0768 86.7241 41.8285 87.4272 40.2832 86.517C38.7379 85.6068 38.2047 83.3042 36.9345 82.034C35.6643 80.7638 33.3583 80.2509 32.4515 78.6853C31.6466 77.2894 32.1391 75.323 31.8945 73.6589C33.4776 77.4143 36.1331 80.6194 39.5287 82.873C42.9244 85.1266 46.9093 86.3286 50.9847 86.3286C55.0601 86.3286 59.045 85.1266 62.4407 82.873C65.8363 80.6194 68.4918 77.4143 70.0749 73.6589Z" fill="#4DA67F"/>
<path d="M70.7705 71.7637C71.3721 69.83 71.6856 67.8182 71.7011 65.7932C73.0833 68.3233 72.1528 69.2811 70.7705 71.7637Z" fill="#4DA67F"/>
<path d="M31.8951 73.6589C31.637 73.0402 31.4103 72.4088 31.2158 71.7672C31.5649 72.3468 31.7957 72.9897 31.8951 73.6589Z" fill="#4DA67F"/>
<path d="M70.7704 71.7672C70.5704 72.4091 70.338 73.0405 70.0742 73.6589C70.1788 72.9885 70.4154 72.3455 70.7704 71.7672Z" fill="#4DA67F"/>
<path d="M50.9849 83.6065C59.6131 83.6065 66.6076 76.612 66.6076 67.9838C66.6076 59.3557 59.6131 52.3612 50.9849 52.3612C42.3568 52.3612 35.3623 59.3557 35.3623 67.9838C35.3623 76.612 42.3568 83.6065 50.9849 83.6065Z" fill="#F3F4F5"/>
<path d="M50.9852 52.3612C53.1226 52.3613 55.2372 52.8 57.1982 53.6501C59.1592 54.5002 60.925 55.7436 62.3862 57.3035C63.8473 58.8634 64.9729 60.7065 65.6932 62.7188C66.4135 64.7312 66.7133 66.8699 66.5739 69.0027C66.3126 65.0462 64.5566 61.337 61.6619 58.6272C58.7672 55.9174 54.9504 54.4096 50.9852 54.4096C47.0201 54.4096 43.2033 55.9174 40.3086 58.6272C37.4139 61.337 35.6579 65.0462 35.3965 69.0027C35.2571 66.8699 35.5569 64.7312 36.2772 62.7188C36.9975 60.7065 38.1231 58.8634 39.5843 57.3035C41.0455 55.7436 42.8112 54.5002 44.7722 53.6501C46.7332 52.8 48.8479 52.3613 50.9852 52.3612Z" fill="#DDE1E8"/>
<path d="M48.2672 75.3401L41.8721 68.945L43.7943 67.0228L48.2672 71.4956L58.1739 61.5888L60.0962 63.5111L48.2672 75.3401Z" fill="#6AB891"/>
</svg>
