<svg width="140" height="104" viewBox="0 0 140 104" fill="none" xmlns="http://www.w3.org/2000/svg">
<path d="M139.702 25.4468V82.9787C139.702 85.3261 138.77 87.5774 137.11 89.2373C135.45 90.8972 133.199 91.8297 130.851 91.8297H120.894V104L100.979 91.8297H63.3618C61.0144 91.8297 58.7631 90.8972 57.1032 89.2373C55.4433 87.5774 54.5107 85.3261 54.5107 82.9787V75.234L85.4895 16.5957H130.851C133.199 16.5957 135.45 17.5282 137.11 19.1881C138.77 20.848 139.702 23.0993 139.702 25.4468Z" fill="#4B567B"/>
<path d="M125.319 29.8723H131.957V36.5106H125.319V29.8723Z" fill="white"/>
<path d="M58.936 30.9787H117.574C117.868 30.9787 118.149 30.8621 118.357 30.6546C118.564 30.4472 118.681 30.1657 118.681 29.8723C118.681 29.5789 118.564 29.2975 118.357 29.09C118.149 28.8825 117.868 28.7659 117.574 28.7659H58.936C58.6426 28.7659 58.3611 28.8825 58.1537 29.09C57.9462 29.2975 57.8296 29.5789 57.8296 29.8723C57.8296 30.1657 57.9462 30.4472 58.1537 30.6546C58.3611 30.8621 58.6426 30.9787 58.936 30.9787Z" fill="white"/>
<path d="M77.7445 37.617H117.574C117.868 37.617 118.149 37.5004 118.357 37.293C118.564 37.0855 118.681 36.804 118.681 36.5106C118.681 36.2172 118.564 35.9358 118.357 35.7283C118.149 35.5208 117.868 35.4042 117.574 35.4042H77.7445C77.4511 35.4042 77.1697 35.5208 76.9622 35.7283C76.7547 35.9358 76.6381 36.2172 76.6381 36.5106C76.6381 36.804 76.7547 37.0855 76.9622 37.293C77.1697 37.5004 77.4511 37.617 77.7445 37.617Z" fill="white"/>
<path d="M125.319 47.5745H131.957V54.2128H125.319V47.5745Z" fill="white"/>
<path d="M125.319 65.2766H131.957V71.9149H125.319V65.2766Z" fill="white"/>
<path d="M58.936 48.6808H117.574C117.868 48.6808 118.149 48.5643 118.357 48.3568C118.564 48.1493 118.681 47.8679 118.681 47.5745C118.681 47.281 118.564 46.9996 118.357 46.7921C118.149 46.5846 117.868 46.4681 117.574 46.4681H58.936C58.6426 46.4681 58.3611 46.5846 58.1537 46.7921C57.9462 46.9996 57.8296 47.281 57.8296 47.5745C57.8296 47.8679 57.9462 48.1493 58.1537 48.3568C58.3611 48.5643 58.6426 48.6808 58.936 48.6808Z" fill="white"/>
<path d="M58.936 66.383H117.574C117.868 66.383 118.149 66.2664 118.357 66.0589C118.564 65.8515 118.681 65.57 118.681 65.2766C118.681 64.9832 118.564 64.7018 118.357 64.4943C118.149 64.2868 117.868 64.1702 117.574 64.1702H58.936C58.6426 64.1702 58.3611 64.2868 58.1537 64.4943C57.9462 64.7018 57.8296 64.9832 57.8296 65.2766C57.8296 65.57 57.9462 65.8515 58.1537 66.0589C58.3611 66.2664 58.6426 66.383 58.936 66.383Z" fill="white"/>
<path d="M77.7445 55.3192H117.574C117.868 55.3192 118.149 55.2026 118.357 54.9951C118.564 54.7876 118.681 54.5062 118.681 54.2128C118.681 53.9193 118.564 53.6379 118.357 53.4304C118.149 53.2229 117.868 53.1064 117.574 53.1064H77.7445C77.4511 53.1064 77.1697 53.2229 76.9622 53.4304C76.7547 53.6379 76.6381 53.9193 76.6381 54.2128C76.6381 54.5062 76.7547 54.7876 76.9622 54.9951C77.1697 55.2026 77.4511 55.3192 77.7445 55.3192Z" fill="white"/>
<path d="M77.7445 73.0213H117.574C117.868 73.0213 118.149 72.9047 118.357 72.6972C118.564 72.4898 118.681 72.2083 118.681 71.9149C118.681 71.6215 118.564 71.3401 118.357 71.1326C118.149 70.9251 117.868 70.8085 117.574 70.8085H77.7445C77.4511 70.8085 77.1697 70.9251 76.9622 71.1326C76.7547 71.3401 76.6381 71.6215 76.6381 71.9149C76.6381 72.2083 76.7547 72.4898 76.9622 72.6972C77.1697 72.9047 77.4511 73.0213 77.7445 73.0213Z" fill="white"/>
<path d="M89.915 16.5957V66.3829C89.915 69.9041 88.5162 73.2811 86.0264 75.7709C83.5365 78.2608 80.1596 79.6595 76.6384 79.6595H54.5107V75.234L85.4895 16.5957H89.915Z" fill="#3E4867"/>
<path d="M85.4893 8.85106V66.383C85.4893 68.7304 84.5568 70.9817 82.8969 72.6416C81.237 74.3015 78.9857 75.234 76.6383 75.234H39.0213L19.1064 87.4043V75.234H9.14892C6.80147 75.234 4.55016 74.3015 2.89027 72.6416C1.23037 70.9817 0.297852 68.7304 0.297852 66.383V8.85106C0.297852 6.50362 1.23037 4.25231 2.89027 2.59242C4.55016 0.93252 6.80147 0 9.14892 0H76.6383C78.9857 0 81.237 0.93252 82.8969 2.59242C84.5568 4.25231 85.4893 6.50362 85.4893 8.85106Z" fill="#F7F7F7"/>
<path d="M42.3407 56.4255C53.3394 56.4255 62.2556 47.5093 62.2556 36.5106C62.2556 25.5119 53.3394 16.5957 42.3407 16.5957C31.342 16.5957 22.4258 25.5119 22.4258 36.5106C22.4258 47.5093 31.342 56.4255 42.3407 56.4255Z" fill="#8CDD79"/>
<path d="M42.3401 56.4255C39.5791 56.4251 36.8483 55.8507 34.3212 54.7386C31.794 53.6265 29.5257 52.001 27.6603 49.9655C25.7949 47.9299 24.3732 45.5287 23.4854 42.9143C22.5976 40.2999 22.2631 37.5294 22.5032 34.7789C22.943 39.7365 25.2233 44.3497 28.8948 47.7099C32.5664 51.0701 37.3631 52.9337 42.3401 52.9337C47.3172 52.9337 52.1139 51.0701 55.7854 47.7099C59.457 44.3497 61.7372 39.7365 62.1771 34.7789C62.4172 37.5294 62.0827 40.2999 61.1949 42.9143C60.3071 45.5287 58.8853 47.9299 57.0199 49.9655C55.1545 52.001 52.8862 53.6265 50.3591 54.7386C47.8319 55.8507 45.1012 56.4251 42.3401 56.4255Z" fill="#7ECE67"/>
<path d="M38.8769 44.3035C38.3661 44.3035 38.8077 44.5979 31.3266 37.1168C31.1612 36.9515 31.0684 36.7272 31.0684 36.4934C31.0684 36.2596 31.1612 36.0353 31.3266 35.87C31.4919 35.7046 31.7162 35.6118 31.95 35.6118C32.1838 35.6118 32.4081 35.7046 32.5734 35.87L38.8769 42.1908L52.1073 28.9604C52.2727 28.795 52.4969 28.7021 52.7308 28.7021C52.9646 28.7021 53.1889 28.795 53.3542 28.9604C53.5195 29.1257 53.6124 29.35 53.6124 29.5838C53.6124 29.8176 53.5195 30.0419 53.3542 30.2072C38.1929 45.3685 39.3965 44.3035 38.8769 44.3035Z" fill="white"/>
<path d="M85.4893 61.9575V66.383C85.4893 68.7304 84.5568 70.9817 82.8969 72.6416C81.237 74.3015 78.9857 75.2341 76.6383 75.2341H39.0213L19.1064 87.4043V75.2341H9.14892C6.80147 75.2341 4.55016 74.3015 2.89027 72.6416C1.23037 70.9817 0.297852 68.7304 0.297852 66.383V61.9575C0.297852 64.3049 1.23037 66.5562 2.89027 68.2161C4.55016 69.876 6.80147 70.8085 9.14892 70.8085H76.6383C78.9857 70.8085 81.237 69.876 82.8969 68.2161C84.5568 66.5562 85.4893 64.3049 85.4893 61.9575Z" fill="#EDEDED"/>
<path d="M54.5107 78.5532V82.9788C54.5107 85.3262 55.4433 87.5775 57.1032 89.2374C58.7631 90.8973 61.0144 91.8298 63.3618 91.8298H100.979L120.894 104V91.8298H130.851C133.199 91.8298 135.45 90.8973 137.11 89.2374C138.77 87.5775 139.702 85.3262 139.702 82.9788V78.5532C139.702 80.9007 138.77 83.152 137.11 84.8119C135.45 86.4718 133.199 87.4043 130.851 87.4043H63.3618C61.0144 87.4043 58.7631 86.4718 57.1032 84.8119C55.4433 83.152 54.5107 80.9007 54.5107 78.5532Z" fill="#3E4867"/>
</svg>
