<svg width="126" height="126" viewBox="0 0 126 126" fill="none" xmlns="http://www.w3.org/2000/svg">
<path d="M0 8.13V30.87C0 33.0262 0.856551 35.0941 2.38122 36.6188C3.90589 38.1435 5.97379 39 8.13 39H54.84L63 50L71.16 39H117.87C120.026 39 122.094 38.1435 123.619 36.6188C125.143 35.0941 126 33.0262 126 30.87V8.13C126 5.97379 125.143 3.90589 123.619 2.38122C122.094 0.856551 120.026 0 117.87 0H8.13C5.97379 0 3.90589 0.856551 2.38122 2.38122C0.856551 3.90589 0 5.97379 0 8.13Z" fill="#F9F9F9"/>
<path d="M126 25.8699V30.8699C126 33.0261 125.143 35.094 123.619 36.6187C122.094 38.1433 120.026 38.9999 117.87 38.9999H71.16L63 49.9999L54.84 38.9999H8.13C5.97379 38.9999 3.90589 38.1433 2.38122 36.6187C0.856551 35.094 0 33.0261 0 30.8699V25.8699C0 28.0261 0.856551 30.094 2.38122 31.6187C3.90589 33.1433 5.97379 33.9999 8.13 33.9999H117.87C120.026 33.9999 122.094 33.1433 123.619 31.6187C125.143 30.094 126 28.0261 126 25.8699Z" fill="#EDEDED"/>
<path d="M50 87H26V126H50V87Z" fill="#4B567B"/>
<path d="M50 121H26V126H50V121Z" fill="#3E4867"/>
<path d="M50.001 90.2298C62.271 66.9298 61.001 71.6498 61.001 58.3798C61.001 57.3349 61.4161 56.3327 62.155 55.5938C62.8939 54.8549 63.896 54.4398 64.941 54.4398C69.941 54.4398 73.841 59.4398 73.841 64.5598C73.841 72.2498 71.741 76.9998 69.901 81.9998H94.561C95.9083 81.9726 97.2179 82.4464 98.2358 83.3295C99.2538 84.2126 99.9078 85.4421 100.071 86.7798C100.136 87.5061 100.05 88.2379 99.8164 88.9288C99.5832 89.6196 99.2086 90.2543 98.7166 90.7925C98.2246 91.3306 97.6259 91.7603 96.9586 92.0543C96.2913 92.3482 95.5701 92.5 94.841 92.4998C95.5701 92.4997 96.2913 92.6514 96.9586 92.9454C97.6259 93.2393 98.2246 93.6691 98.7166 94.2072C99.2086 94.7453 99.5832 95.38 99.8164 96.0709C100.05 96.7617 100.136 97.4936 100.071 98.2198C99.9078 99.5575 99.2538 100.787 98.2358 101.67C97.2179 102.553 95.9083 103.027 94.561 103H91.361C92.8197 103 94.2186 103.579 95.2501 104.611C96.2815 105.642 96.861 107.041 96.861 108.5C96.861 109.959 96.2815 111.357 95.2501 112.389C94.2186 113.42 92.8197 114 91.361 114H89.721C91.1797 114 92.5786 114.579 93.6101 115.611C94.6415 116.642 95.221 118.041 95.221 119.5C95.221 120.959 94.6415 122.357 93.6101 123.389C92.5786 124.42 91.1797 125 89.721 125H59.131C57.4206 124.996 55.7312 124.623 54.178 123.907C52.6248 123.191 51.2444 122.148 50.131 120.85C49.961 120.65 50.021 122.64 50.021 92.9998" fill="#F2C4B0"/>
<path d="M94.8491 117.53C95.1778 118.366 95.2954 119.271 95.1914 120.163C95.0875 121.056 94.7652 121.909 94.2532 122.648C93.7411 123.386 93.055 123.987 92.2554 124.397C91.4559 124.808 90.5676 125.015 89.6691 125H59.1291C57.4187 124.996 55.7293 124.624 54.1761 123.907C52.6229 123.191 51.2425 122.148 50.1291 120.85C49.9691 120.66 50.0191 121.18 50.0191 116.72C51.1326 118.056 52.5254 119.131 54.0993 119.871C55.6733 120.61 57.3901 120.996 59.1291 121H89.6691C90.7826 121.015 91.8743 120.691 92.7995 120.072C93.7247 119.452 94.4395 118.566 94.8491 117.53Z" fill="#EAB39B"/>
<path d="M62.9995 10L66.0295 16.14L72.8095 17.13L67.9095 21.91L69.0595 28.66L62.9995 25.48L56.9395 28.66L58.0895 21.91L53.1895 17.13L59.9695 16.14L62.9995 10Z" fill="#FBCC88"/>
<path d="M87.0004 10L90.0304 16.14L96.8104 17.13L91.9104 21.91L93.0604 28.66L87.0004 25.48L80.9404 28.66L82.0904 21.91L77.1904 17.13L83.9704 16.14L87.0004 10Z" fill="#FBCC88"/>
<path d="M110.999 10L114.029 16.14L120.809 17.13L115.909 21.91L117.059 28.66L110.999 25.48L104.939 28.66L106.089 21.91L101.189 17.13L107.969 16.14L110.999 10Z" fill="#FBCC88"/>
<path d="M39.0004 10L42.0304 16.14L48.8104 17.13L43.9104 21.91L45.0604 28.66L39.0004 25.48L32.9404 28.66L34.0904 21.91L29.1904 17.13L35.9704 16.14L39.0004 10Z" fill="#FBCC88"/>
<path d="M14.9995 10L18.0295 16.14L24.8095 17.13L19.9095 21.91L21.0595 28.66L14.9995 25.48L8.93945 28.66L10.0895 21.91L5.18945 17.13L11.9695 16.14L14.9995 10Z" fill="#FBCC88"/>
<path d="M20.0004 22.6301L21.0004 28.6301L15.0004 25.4801L8.94043 28.6601L9.94043 22.6601C11.467 23.5545 13.2053 24.0234 14.9745 24.0182C16.7438 24.0129 18.4793 23.5336 20.0004 22.6301Z" fill="#F6B756"/>
<path d="M44.0004 22.6301L45.0004 28.6301L39.0004 25.4801L32.9404 28.6601L33.9404 22.6601C35.467 23.5545 37.2053 24.0234 38.9745 24.0182C40.7438 24.0129 42.4793 23.5336 44.0004 22.6301Z" fill="#F6B756"/>
<path d="M67.9995 22.6301L68.9995 28.6301L62.9995 25.4801L56.9395 28.6601L57.9395 22.6601C59.466 23.5545 61.2043 24.0234 62.9735 24.0182C64.7428 24.0129 66.4783 23.5336 67.9995 22.6301Z" fill="#F6B756"/>
<path d="M92.0004 22.6301L93.0004 28.6301L87.0004 25.4801L80.9404 28.6601L81.9404 22.6601C83.467 23.5545 85.2053 24.0234 86.9745 24.0182C88.7438 24.0129 90.4793 23.5336 92.0004 22.6301Z" fill="#F6B756"/>
<path d="M115.999 22.6301L116.999 28.6301L110.999 25.4801L104.939 28.6601L105.939 22.6601C107.466 23.5545 109.204 24.0234 110.974 24.0182C112.743 24.0129 114.478 23.5336 115.999 22.6301Z" fill="#F6B756"/>
</svg>
