<svg width="259" height="305" viewBox="0 0 259 305" fill="none" xmlns="http://www.w3.org/2000/svg">
<path d="M8.5 117C13.1944 117 17 112.971 17 108C17 103.029 13.1944 99 8.5 99C3.80556 99 0 103.029 0 108C0 112.971 3.80556 117 8.5 117Z" fill="#6C63FF"/>
<path d="M215 296.252L208.958 294.926L210.281 288.883L206.253 288L204.927 294.043L198.883 292.72L198 296.748L204.045 298.074L202.721 304.119L206.75 305L208.075 298.957L214.117 300.28L215 296.252Z" fill="#E6E6E6"/>
<path opacity="0.8" d="M51.6957 247.054L132.214 152.877L212.732 58.6999L258.185 5.53552C260.7 2.59397 256.819 -1.99507 254.304 0.94636L173.786 95.1232L93.2684 189.3L47.8147 242.465C45.2998 245.406 49.1809 249.995 51.6957 247.054Z" fill="url(#paint0_linear)"/>
<defs>
<linearGradient id="paint0_linear" x1="122780" y1="60264.6" x2="141184" y2="60264.6" gradientUnits="userSpaceOnUse">
<stop stop-color="white"/>
<stop offset="1" stop-color="white" stop-opacity="0.3"/>
</linearGradient>
</defs>
</svg>
