<svg width="287" height="275" viewBox="0 0 287 275" fill="none" xmlns="http://www.w3.org/2000/svg">
<path d="M287 8.25158L280.958 6.92593L282.281 0.88296L278.253 0L276.927 6.04297L270.883 4.71976L270 8.7484L276.045 10.0741L274.722 16.1195L278.75 17L280.075 10.957L286.117 12.2802L287 8.25158Z" fill="#E6E6E6"/>
<path d="M17 266.253L10.957 264.927L12.2802 258.883L8.2516 258L6.92593 264.045L0.882976 262.722L0 266.75L6.04295 268.075L4.71977 274.117L8.7484 275L10.0741 268.955L16.117 270.281L17 266.253Z" fill="#E6E6E6"/>
<path d="M191 228.253L184.957 226.927L186.28 220.883L182.252 220L180.926 226.045L174.883 224.722L174 228.75L180.043 230.075L178.72 236.117L182.748 237L184.074 230.955L190.117 232.281L191 228.253Z" fill="#E6E6E6"/>
</svg>
