<svg width="512" height="332" viewBox="0 0 512 332" fill="none" xmlns="http://www.w3.org/2000/svg">
<path d="M495.484 0.839111H264.258L9 177.5V324.333H495.484L512 314.645V283.972L501.25 273.75V244.75L512 236.783V189.594L502.333 180.333V150.666L512 142.404V95.2161L502.333 86.6671V60.6671L512 48.0281V17.3551C512 8.23312 504.605 0.839111 495.484 0.839111V0.839111Z" fill="#E5646E"/>
<path d="M256.333 48.0281H512V95.2171H256.333V48.0281Z" fill="#F2F2F6"/>
<path d="M256 142.405L264.258 189.594H512V142.405H256Z" fill="#F2F2F6"/>
<path d="M16.516 265.097V181L0 189.594V236.783L7 242.75V273.75L0 283.972V314.645C0 323.767 7.395 331.161 16.516 331.161H495.484C504.605 331.161 512 323.766 512 314.645H66.065C38.7 314.645 16.516 292.462 16.516 265.097Z" fill="#DB4655"/>
<path d="M264.258 0.839111H16.516L6 17.3551L16.516 189.594H264.258V0.839111Z" fill="#5055A0"/>
<path d="M16.516 0.839111C7.395 0.839111 0 8.23312 0 17.3551V189.594H16.516V0.839111Z" fill="#3F3F8F"/>
<path d="M33.1134 37.6571C28.5484 37.6571 24.8154 33.9591 24.8154 29.3991C24.8154 24.8391 28.4684 21.1411 33.0334 21.1411H33.1144C37.6794 21.1411 41.3724 24.8391 41.3724 29.3991C41.3724 33.9591 37.6774 37.6571 33.1134 37.6571Z" fill="white"/>
<path d="M33.1134 103.722C28.5484 103.722 24.8154 100.024 24.8154 95.4641C24.8154 90.9041 28.4684 87.2061 33.0334 87.2061H33.1144C37.6794 87.2061 41.3724 90.9041 41.3724 95.4641C41.3724 100.024 37.6774 103.722 33.1134 103.722Z" fill="white"/>
<path d="M33.1134 169.786C28.5484 169.786 24.8154 166.088 24.8154 161.528C24.8154 156.968 28.4684 153.27 33.0334 153.27H33.1144C37.6794 153.27 41.3724 156.968 41.3724 161.528C41.3724 166.088 37.6774 169.786 33.1134 169.786Z" fill="white"/>
<path d="M33.1134 70.6901C28.5484 70.6901 24.8154 66.9921 24.8154 62.4321C24.8154 57.8721 28.4684 54.1741 33.0334 54.1741H33.1144C37.6794 54.1741 41.3724 57.8721 41.3724 62.4321C41.3714 66.9921 37.6774 70.6901 33.1134 70.6901Z" fill="#F2F2F6"/>
<path d="M33.1134 136.754C28.5484 136.754 24.8154 133.056 24.8154 128.496C24.8154 123.936 28.4684 120.238 33.0334 120.238H33.1144C37.6794 120.238 41.3724 123.936 41.3724 128.496C41.3724 133.056 37.6774 136.754 33.1134 136.754Z" fill="#F2F2F6"/>
<path d="M231.306 37.6571C226.741 37.6571 223.008 33.9591 223.008 29.3991C223.008 24.8391 226.661 21.1411 231.226 21.1411H231.307C235.872 21.1411 239.565 24.8391 239.565 29.3991C239.565 33.9591 235.871 37.6571 231.306 37.6571V37.6571Z" fill="white"/>
<path d="M231.306 103.722C226.741 103.722 223.008 100.024 223.008 95.4641C223.008 90.9041 226.661 87.2061 231.226 87.2061H231.307C235.872 87.2061 239.565 90.9041 239.565 95.4641C239.565 100.024 235.871 103.722 231.306 103.722V103.722Z" fill="white"/>
<path d="M231.306 169.786C226.741 169.786 223.008 166.088 223.008 161.528C223.008 156.968 226.661 153.27 231.226 153.27H231.307C235.872 153.27 239.565 156.968 239.565 161.528C239.565 166.088 235.871 169.786 231.306 169.786V169.786Z" fill="white"/>
<path d="M231.306 70.6901C226.741 70.6901 223.008 66.9921 223.008 62.4321C223.008 57.8721 226.661 54.1741 231.226 54.1741H231.307C235.872 54.1741 239.565 57.8721 239.565 62.4321C239.565 66.9921 235.871 70.6901 231.306 70.6901V70.6901Z" fill="#F2F2F6"/>
<path d="M231.306 136.754C226.741 136.754 223.008 133.056 223.008 128.496C223.008 123.936 226.661 120.238 231.226 120.238H231.307C235.872 120.238 239.565 123.936 239.565 128.496C239.565 133.056 235.871 136.754 231.306 136.754V136.754Z" fill="#F2F2F6"/>
<path d="M82.6613 37.6571C78.0963 37.6571 74.3633 33.9591 74.3633 29.3991C74.3633 24.8391 78.0163 21.1411 82.5813 21.1411H82.6623C87.2273 21.1411 90.9203 24.8391 90.9203 29.3991C90.9203 33.9591 87.2263 37.6571 82.6613 37.6571Z" fill="#F2F2F6"/>
<path d="M82.6613 103.722C78.0963 103.722 74.3633 100.024 74.3633 95.4641C74.3633 90.9041 78.0163 87.2061 82.5813 87.2061H82.6623C87.2273 87.2061 90.9203 90.9041 90.9203 95.4641C90.9203 100.024 87.2263 103.722 82.6613 103.722Z" fill="#F2F2F6"/>
<path d="M82.6613 169.786C78.0963 169.786 74.3633 166.088 74.3633 161.528C74.3633 156.968 78.0163 153.27 82.5813 153.27H82.6623C87.2273 153.27 90.9203 156.968 90.9203 161.528C90.9203 166.088 87.2263 169.786 82.6613 169.786Z" fill="#F2F2F6"/>
<path d="M82.6613 70.6901C78.0963 70.6901 74.3633 66.9921 74.3633 62.4321C74.3633 57.8721 78.0163 54.1741 82.5813 54.1741H82.6623C87.2273 54.1741 90.9203 57.8721 90.9203 62.4321C90.9193 66.9921 87.2263 70.6901 82.6613 70.6901Z" fill="white"/>
<path d="M82.6613 136.754C78.0963 136.754 74.3633 133.056 74.3633 128.496C74.3633 123.936 78.0163 120.238 82.5813 120.238H82.6623C87.2273 120.238 90.9203 123.936 90.9203 128.496C90.9203 133.056 87.2263 136.754 82.6613 136.754Z" fill="white"/>
<path d="M57.8869 54.1732C53.3219 54.1732 49.5889 50.4752 49.5889 45.9152C49.5889 41.3552 53.2419 37.6572 57.8069 37.6572H57.8879C62.4529 37.6572 66.1459 41.3552 66.1459 45.9152C66.1449 50.4762 62.4519 54.1732 57.8869 54.1732Z" fill="white"/>
<path d="M57.8869 120.238C53.3219 120.238 49.5889 116.54 49.5889 111.98C49.5889 107.42 53.2419 103.722 57.8069 103.722H57.8879C62.4529 103.722 66.1459 107.42 66.1459 111.98C66.1459 116.54 62.4519 120.238 57.8869 120.238Z" fill="white"/>
<path d="M57.8869 87.2062C53.3219 87.2062 49.5889 83.5082 49.5889 78.9482C49.5889 74.3882 53.2419 70.6902 57.8069 70.6902H57.8879C62.4529 70.6902 66.1459 74.3882 66.1459 78.9482C66.1459 83.5082 62.4519 87.2062 57.8869 87.2062Z" fill="#F2F2F6"/>
<path d="M57.8869 153.27C53.3219 153.27 49.5889 149.572 49.5889 145.012C49.5889 140.452 53.2419 136.754 57.8069 136.754H57.8879C62.4529 136.754 66.1459 140.452 66.1459 145.012C66.1459 149.572 62.4519 153.27 57.8869 153.27Z" fill="#F2F2F6"/>
<path d="M132.21 37.6571C127.645 37.6571 123.912 33.9591 123.912 29.3991C123.912 24.8391 127.565 21.1411 132.13 21.1411H132.211C136.776 21.1411 140.469 24.8391 140.469 29.3991C140.469 33.9591 136.774 37.6571 132.21 37.6571V37.6571Z" fill="white"/>
<path d="M132.21 103.722C127.645 103.722 123.912 100.024 123.912 95.4641C123.912 90.9041 127.565 87.2061 132.13 87.2061H132.211C136.776 87.2061 140.469 90.9041 140.469 95.4641C140.469 100.024 136.774 103.722 132.21 103.722V103.722Z" fill="white"/>
<path d="M132.21 169.786C127.645 169.786 123.912 166.088 123.912 161.528C123.912 156.968 127.565 153.27 132.13 153.27H132.211C136.776 153.27 140.469 156.968 140.469 161.528C140.469 166.088 136.774 169.786 132.21 169.786V169.786Z" fill="white"/>
<path d="M132.21 70.6901C127.645 70.6901 123.912 66.9921 123.912 62.4321C123.912 57.8721 127.565 54.1741 132.13 54.1741H132.211C136.776 54.1741 140.469 57.8721 140.469 62.4321C140.468 66.9921 136.774 70.6901 132.21 70.6901V70.6901Z" fill="#F2F2F6"/>
<path d="M132.21 136.754C127.645 136.754 123.912 133.056 123.912 128.496C123.912 123.936 127.565 120.238 132.13 120.238H132.211C136.776 120.238 140.469 123.936 140.469 128.496C140.469 133.056 136.774 136.754 132.21 136.754V136.754Z" fill="#F2F2F6"/>
<path d="M107.435 54.1732C102.87 54.1732 99.1367 50.4752 99.1367 45.9152C99.1367 41.3552 102.79 37.6572 107.355 37.6572H107.436C112.001 37.6572 115.694 41.3552 115.694 45.9152C115.694 50.4762 112 54.1732 107.435 54.1732Z" fill="#F2F2F6"/>
<path d="M107.435 120.238C102.87 120.238 99.1367 116.54 99.1367 111.98C99.1367 107.42 102.79 103.722 107.355 103.722H107.436C112.001 103.722 115.694 107.42 115.694 111.98C115.694 116.54 112 120.238 107.435 120.238Z" fill="#F2F2F6"/>
<path d="M107.435 87.2062C102.87 87.2062 99.1367 83.5082 99.1367 78.9482C99.1367 74.3882 102.79 70.6902 107.355 70.6902H107.436C112.001 70.6902 115.694 74.3882 115.694 78.9482C115.694 83.5082 112 87.2062 107.435 87.2062Z" fill="white"/>
<path d="M107.435 153.27C102.87 153.27 99.1367 149.572 99.1367 145.012C99.1367 140.452 102.79 136.754 107.355 136.754H107.436C112.001 136.754 115.694 140.452 115.694 145.012C115.694 149.572 112 153.27 107.435 153.27Z" fill="white"/>
<path d="M181.677 37.6571C177.112 37.6571 173.379 33.9591 173.379 29.3991C173.379 24.8391 177.032 21.1411 181.597 21.1411H181.678C186.243 21.1411 189.936 24.8391 189.936 29.3991C189.936 33.9591 186.242 37.6571 181.677 37.6571V37.6571Z" fill="#F2F2F6"/>
<path d="M181.677 103.722C177.112 103.722 173.379 100.024 173.379 95.4641C173.379 90.9041 177.032 87.2061 181.597 87.2061H181.678C186.243 87.2061 189.936 90.9041 189.936 95.4641C189.936 100.024 186.242 103.722 181.677 103.722V103.722Z" fill="#F2F2F6"/>
<path d="M181.677 169.786C177.112 169.786 173.379 166.088 173.379 161.528C173.379 156.968 177.032 153.27 181.597 153.27H181.678C186.243 153.27 189.936 156.968 189.936 161.528C189.936 166.088 186.242 169.786 181.677 169.786V169.786Z" fill="#F2F2F6"/>
<path d="M181.677 70.6901C177.112 70.6901 173.379 66.9921 173.379 62.4321C173.379 57.8721 177.032 54.1741 181.597 54.1741H181.678C186.243 54.1741 189.936 57.8721 189.936 62.4321C189.935 66.9921 186.242 70.6901 181.677 70.6901V70.6901Z" fill="white"/>
<path d="M181.677 136.754C177.112 136.754 173.379 133.056 173.379 128.496C173.379 123.936 177.032 120.238 181.597 120.238H181.678C186.243 120.238 189.936 123.936 189.936 128.496C189.936 133.056 186.242 136.754 181.677 136.754V136.754Z" fill="white"/>
<path d="M156.903 54.1732C152.338 54.1732 148.605 50.4752 148.605 45.9152C148.605 41.3552 152.258 37.6572 156.823 37.6572H156.904C161.469 37.6572 165.162 41.3552 165.162 45.9152C165.161 50.4762 161.468 54.1732 156.903 54.1732V54.1732Z" fill="white"/>
<path d="M156.903 120.238C152.338 120.238 148.605 116.54 148.605 111.98C148.605 107.42 152.258 103.722 156.823 103.722H156.904C161.469 103.722 165.162 107.42 165.162 111.98C165.162 116.54 161.468 120.238 156.903 120.238V120.238Z" fill="white"/>
<path d="M156.903 87.2062C152.338 87.2062 148.605 83.5082 148.605 78.9482C148.605 74.3882 152.258 70.6902 156.823 70.6902H156.904C161.469 70.6902 165.162 74.3882 165.162 78.9482C165.162 83.5082 161.468 87.2062 156.903 87.2062V87.2062Z" fill="#F2F2F6"/>
<path d="M156.903 153.27C152.338 153.27 148.605 149.572 148.605 145.012C148.605 140.452 152.258 136.754 156.823 136.754H156.904C161.469 136.754 165.162 140.452 165.162 145.012C165.162 149.572 161.468 153.27 156.903 153.27V153.27Z" fill="#F2F2F6"/>
<path d="M206.532 54.1732C201.967 54.1732 198.234 50.4752 198.234 45.9152C198.234 41.3552 201.887 37.6572 206.452 37.6572H206.533C211.098 37.6572 214.791 41.3552 214.791 45.9152C214.79 50.4762 211.097 54.1732 206.532 54.1732V54.1732Z" fill="#F2F2F6"/>
<path d="M206.532 120.238C201.967 120.238 198.234 116.54 198.234 111.98C198.234 107.42 201.887 103.722 206.452 103.722H206.533C211.098 103.722 214.791 107.42 214.791 111.98C214.791 116.54 211.097 120.238 206.532 120.238V120.238Z" fill="#F2F2F6"/>
<path d="M206.532 87.2062C201.967 87.2062 198.234 83.5082 198.234 78.9482C198.234 74.3882 201.887 70.6902 206.452 70.6902H206.533C211.098 70.6902 214.791 74.3882 214.791 78.9482C214.791 83.5082 211.097 87.2062 206.532 87.2062V87.2062Z" fill="white"/>
<path d="M206.532 153.27C201.967 153.27 198.234 149.572 198.234 145.012C198.234 140.452 201.887 136.754 206.452 136.754H206.533C211.098 136.754 214.791 140.452 214.791 145.012C214.791 149.572 211.097 153.27 206.532 153.27V153.27Z" fill="white"/>
<path d="M3 270.333L20.26 283.972H512V236.783H16.516L3 270.333Z" fill="#F2F2F6"/>
<path d="M0 236.783V283.972H20.26C17.859 278.152 16.517 271.783 16.517 265.096V236.782H0L0 236.783Z" fill="#E1E1E6"/>
</svg>
